<svg enable-background="new 0 0 543 671" height="671" viewBox="0 0 543 671" width="542" xmlns="http://www.w3.org/2000/svg"><g fill="#f7f7f7"><g clip-rule="evenodd" fill-rule="evenodd"><path d="m58.1 46.3c.6.1 1.3 0 1.9-.2.6-3.8-3.6-3.3-5.9-2.6-.3 1.1.6 1.3.8 1.9.2.8.3 1.6.3 2.4.6.2 1.2.3 1.8.2-.1-.9.7-1.3 1.1-1.7"/><path d="m50.4 56.4c-1.7-.3-1.6 1.1-2.5 1.9-.9.7-1.8 1.3-2.9 1.7-1-1.2.3-1.3.4-2s0-1.3-.4-1.9c-.6-1.3-2-2.1-3.4-1.9.2.8.9 1.1 1 2.1-.6.3-1.2.4-1.8.4-1.3-3.1-.1-6.9-2.1-9.7-1.4-2-2.6-1-3.2.9-.3.8-.4 1.7-.2 2.5.4.9 1.8.5 1.4 2.2-.2.1-.3.3-.4.4-1.8.6-2-.9-2.3-2.3-1.2-.1-2.2-.2-3.1.6-.5.8-.9 1.7-1.2 2.6.3 2.5 3.7 1.9 5.3 3 .9.6 1.1 1.6 1.9 2.4s2 1 2.5 1.8c1.3 2-1.5 3.1-1.3 5.6-1.4.3-1.9-.8-3-1 0 .7-.1 1.4-.1 2.1-.9.2-1.4-.6-1.9-.6-.3 0-.6-.3-1-.3-.6 0-.2.8-.7.8-1.4.2-2.6-.4-4.1-.1 0 2.4-1.5 6 1 7.5 2.9 1.7 4.9-.9 7.2-2.2.1-.1.1-.1 0 0-.8 1.1-2.5 1.9-2 3.5 1 .6 3.1.9 4.1.2 1.3-.9.8-2.7.9-4.2.6.1 1.2.2 1.8.4 1 6.8-1.5 13.4-1.8 20.4-.2 3.4.4 7.6 4.5 4.7 3.1-2.1 1.9-7.1 2.1-10.7.2 0 .5-.1.8-.1 0-2.2-1.8-3.6-.5-6 2-3.6 2.1 2 4.3 1s-.7-4.1-1.5-5.1c-1.2-1.5-3-3.4-2.7-5.5 1.6 0 1.9.2 2.5-1.1.5-1-.2-2.2.7-3.2 1.2-1.3 3.7-.9 5.3-2 .4-1.9-.5-4.1-2.4-4.3.9-1.1-.8-3.5-1.2-4.5"/><path d="m60 29.6c.1-1-.4-3-1.8-2.5-1.1.4-.3 2.6-1.8 2.9.3-1.8-1-2.1-1.8-.8-.5.8-.7 2.9-.9 3.9-.3 1.3-.5 2.7-.6 4-.1 2.3.3 2.4 2.2 2.7 1.5.2 2.8.5 3.3-1.2s-.9-1.2-1.1-2.8 2.3-4.5 2.5-6.2"/><path d="m49.5 42.7c-.4.2-1.3 1-1.4 1.6-.2 1.3.7 1.4 1.1 2.3.7 1.6.9 3.3.5 5-.3 1-1.5 2.7-3 2.4-1.7-.3-1.3-2.9-1.6-4.2-.4-1.4-1-2.7-1.8-4-.2-.5-.6-1.7-.2-2.2.7-.8 2.1 0 2.7-.5.3-.2 1.1-10.3 3.9-6 .7 1-.2 4.4-.2 5.6"/><path d="m338 3c-2-.2-2.2 2.1-3.5 3-.6-.8-.8-2.3-2.2-2.2-1 .1-1.4 1.3-1.8 2-.8 1.2-2.7 3.6-2.5 5.2 4.1.2 4.2-1.6 6.9-3.7 2.1-1.5 3-1.6 3.1-4.3"/><path d="m321.7 6.5c-.9-.2-3.2-2.3-4.2-2.9s-1.8-3.3-2.7-3.5c-1.6-.4-.7 1.1-1.1 1.9s-1.3.6-1.6 1.2c-.9 2.1 2 2.7 1.6 4.5 1 0 2.1.1 3 .4.3-.7.4-1.5.3-2.3 1.2.1 1.1 1.4 2 1.8 1.4.5 3.8.1 2.7-1.1"/><path d="m334 19.2c-.1-1.2-2-4.4-3.5-4.2-2.8.3-.9 3.7-.5 4.9 1 .4 2.9-.7 4-.7"/><path d="m326 8c-1.5 1 .4 5.8-1.1 6.9s-.8-5.2-.7-6.4c.5-.5 1.2-.6 1.8-.5"/><path d="m324.9 21.3c-.2.1-.4.4-.8.2-1.6-3.6-2.9.4-4.1 1.5 1 .5.6 1.6 1.4 2 .6.3 1.6-.6 2.4-.3.2-.3.5-.6.8-.9.2-.6.6-2 .3-2.5"/><path d="m319 15.8c-.9-1-2.2-3.2-3.5-3.6-2.3-.9-2.6 1.7-2.5 3.6 1.4.7 5.7 2.5 5.8-.1.2-.1 0 .1.2.1"/><path d="m311 38.2c-1.9-1-2.7-3.3-4.6-4.6s-5.8-.7-5.3 2.2c.2 1.4 1.5.7 2.5 1.5.8.6 1.2 2.1 2.3 2.9 2.3 1.6 5.6.8 5.1-2"/><path d="m320.8 36.1c-.2 2.3.6 3.9 0 6.1s-1.4 5.8-3.5 2.4c-2.3-3.7-1.7-9.2 3.5-8.5"/><path d="m328 28.5c.2 2.4-5.1 4.9-7.4 4.4-1.3-2.1-6.9-6.6-6.9-1.1-6.2 1.8-3.9-4.4-6.7-8.4-2 1.2-2.4 3.5-2.2 5.8-.4.1-.7.3-1 .4-1.7-2.6.1-5.2.4-7.8.4-3.3-1-5.9 2.9-6.7 6.5-1.4 7.1 6.5 6.1 11.1 1.4.4 2.8-.4 3.2-1.7h1c.4 3.5 4 1.8 6.1 1.5.1 4.1 1.2 4 4.5 2.5"/><path d="m197.6 248.9-.2-.9c0 .3 0 .7.1 1 0 0 .1-.1.1-.1"/><path d="m238 233.6c2.4-2.5 3.1-6.1-.9-4-1.7 2.7-4 5.2-5.7 8.1-2.1 3.5-2.1 4-6.4 4.3 0 .7 0 1.3.1 2l7.1-4.8c1.6-2.4 3.8-3.4 5.8-5.6"/><path d="m240 317c-.2-.3-.3-.6-.4-1l-.6.2c.3.3.7.5 1 .8"/><path d="m198 254-.2-2.4c-.2-.9-.3-1.7-.3-2.6-.4 1.7-.9 3.2.5 5"/><path d="m195.9 89.5c1.9-1.3 2.9-3.5 2.6-5.8-1.3-.3-2.4.8-3.1 1.7-1 0-1.8.2-2.8.2-.3-2.2 1-2.3 2.5-3.6 1-.9 1.9-4.3 3-5.1-.3-1-1.1-2.2-1.1-3.3.1-1.6 1.3-2.1 1.7-3.3.6-1.9.1-1.2-1.2-2.4-.7-.7-1.4-1.7-2.5-1.9-2.3-.4-3.2 3.3-4.9 4.6s-4.2 2.4-5.4 4.4c-2.1.4-3.9 1.1-5.9 1.6-1.2.2-2.6.3-3.9.7l19.2 12.7c.6 0 1.2-.2 1.8-.5"/><path d="m187.3 171.7c.9 1.3 1.8 5.2 4.2 4.1 1.9-.8 1.2-2.8 1.4-4.6l-5-3.3c-1.5.7-3.2 3.5-.6 3.8"/><path d="m150.4 148c1 0 2.4-.8 3.5-.9-2-1-5.7-5.6-7.3-1.3-1 2.6-.6 8.6-.2 11.1.4 2.2.8 7.9 3.6 9 1 .4 4.2-.2 4.7-1.3.7-1.4-1.3-2.5-1.8-3.8-.3-1.4-.3-2.9.2-4.3.5-1.8 1.5-1.8 2.4-3.3 2.4-3.7-4.6-1.7-5.1-5.2"/><path d="m199 177.6c-3.9-2.4-5.1 3-5 4.8 4.2 2.2 5.1-2.6 5-4.8"/><path d="m176 202c4.5.2 6.3-4 8-8-4 0-8.2 3.9-8 8"/><path d="m146.8 168.2c-3.8-1.9-4.9 7.7-4.8 9.7 2.5.6 5.1-4.8 7-5.7-2-1.2-2.1-1.7-2.2-4"/><path d="m173.9 203.5s0 .1 0 0c-3.7-.1-7.3.4-10.8 1.4-.3 2 .5 3.2 1.9 4.6s2.2 2.5 2.9.2c.6-2 .4-2.6 2.4-4 1.3-.9 4.3-.7 3.7-2.7-.1-.2-.1.4-.1.5"/><path d="m208 182-1-1c.1.7.4 1.1 1 1"/><path d="m240 317c.2.7.5 1.4 1 2-.3-.6-.6-1.3-1-2"/><path d="m202 243.9c3.4-1.8 6.9.5 2.9 2.5-4.2 2.1-4.8-.1-4.9 4.9 0 2.3-.1 7.9 4.1 4.9 1.1-.8 3.1-5.9 3.1-7.3 1.8-.3 3.2-6.3 4-8.1 1-3 2.3-5.9 3.8-8.8-3.4 1.4-11.7 8.6-13 11.9"/><path d="m202 258.9c-2.6-2.4-3.6-4.4-4.1-7.1l.1 2.1c-.9-1.6-.6-3-.3-4.5 0-.8 0-1.6 0-2.5-1.8 1.4-3.4 2.9-4.9 4.7-1.1 1.3-.7 2.9-2.8 2.7-1.4-.1-1.4-2.2-2.2-2.6-3.2-1.7-3.1 1.3-3.7 4.5-.5 2.8-1.5 6-1 8.9 3-.3 7-9 8.3-3.4-.3.9-.5 1.8-.6 2.7-.1 1.1.4 1.8.4 3 0 .2 0 .4-.1.6l11-7.6c0-.5 0-1-.1-1.5"/><path d="m197.8 248-.6.1.2.9c.2-.3.4-.6.4-1"/><path d="m197.6 252-.2-2c0 .1-.1.2-.1.2.1.6.2 1.2.3 1.8"/><path d="m191 241.9c3.1.9 5.4-5.6 4.9-7.9-4.6.6-5.1 4.3-4.9 7.9"/><path d="m199.4 221.2c1.5-.2 3-.4 4.4-.8 1.1-.4 2-2.1 3.1-2 1.2.2 1.4 2 2.5 2.5s3.2.3 4.5.1c.1-2.1-.9-6.3 1.9-6.6.4-1.1.4-2.3.1-3.5-1-1.8-1.6-3.7-3.7-4.2-2.4-.6-3.8 1.4-6.5-.1-1.8-1.2-3.4-2.7-4.5-4.5-1.1-2-.7-4-2-5.9-3.4-.8-3.9 1.8-4.4 4.1-2.8-.1-4.8.2-5.2 3.2-.4.1-.7 0-1 .1.1 1.9 3.2 4.1 5.2 4.6 1.5-2.7 3 0 4.7 0 2 0 1.6-1.1 3.8-1.1.6 2.3-.9 2.2-2.2 3-2.3 1.3-1.9-.4-3.2 2.2-1.8 3.2.4 6.6 4 3.6.3.5.6 1.1.8 1.6-2.8 2.1-10 .7-13.6.9-3.7 7.7 7.8 3.4 11.3 2.8"/><path d="m208 182.3 1 .7c0-.3-.1-.7-.2-1-.2.1-.5.2-.8.3"/><path d="m174.6 84.1c.4 1 .2 2.2.6 3.1s1.1 1.1 1.1 2.3c-2 .1-3 0-4.5.9-.6.4 0 1.3-1.5 1-.9-.2-1.2-1.2-1.5-2.1-.4-1.4 0-3.8-2.1-3.8-1.9 0-1.4 2.5-2.2 3.6-1.9 2.7-5.8 2.5-3 6.4.7.9 1.4 2.5 2.3 3.2 1.1.8 3.4.1 2.9 2.4-1.1.5-2.1.9-3.3 1.3-.3 3.4 9.5 2.5 6.5 6-1.5 1.7-3.9 2.1-5.6 3.4s-1.7 2.5-4.2 2.3c-.2 4.5 4.2 8.7 8.2 5.8 2.2-1.6 2.7-2.8 4-4.8 1.1-1.7 3.1-1.6 2.7-4.3 1.3-.1 1.7 1.4 3 1.2 1.4-2.8.3-5.1-1.4-7.5-.7-1-1.5-1.2-1.3-2.7.2-1.4 1.3-2.4 2.7-2.5.2 3.2 0 7.5 3.8 8.1 3.9.6 6.1-3.8 2.5-4.8 3.3 1.3 6-.6 5.6-4.4-.4-4.1-4.8-.9-7.1-1.1 2.9-1.2 6.1-2.6 5.8-6.4 1.4-.1 2.9.4 4.3.4l-17.9-12.1c-.8.2-1.6.7-2.2 1.3-1.7 2 1 2.1 1.8 3.8"/><path d="m155.6 124.1c-1 2.6-2.6.7-4.2.6-1.1 1.5-5.4 2.3-7.1 2.8-.5 1.3-.3 3.2-.2 4.7 1.1.1 2.2 0 3.2-.4.9-.2 1.8-1 2.7-.6 1.2.5 2.1 3.4 3.3 4.3 1.4 1.1 3.5 2.2 5 .8 2.8-2.7-2.2-2.4-3.5-3.2 1.4 0 3.5.6 4.7 0 .3-2.1-1.9-3.1-2-4.9 1.5-.1 2.8-.7 4.4-.9-2.2-.5-3.7-3.8-6.3-3.2"/><path d="m201.5 148c.4.1.9.1 1.3 0 1.4-2.4.1-3.8 0-6.2 0-2 1.7-3.2 3.1-4.7-1.1.4-2.2 1.4-3.4 1.6-1.7 1.4-1.8 2.2-1.5 4.3.3 1.5-.3 3.5.5 5"/><path d="m153.3 137.6c-2.1-1.8-2.6.6-4.3 2 1.9 1.7 4.7 1.8 7 2.3-.9-.8-1.8-3.5-2.7-4.3"/><path d="m157 142.6c-.3-.1-.7-.1-1-.2.3.2.7.3 1 .2"/><path d="m188.4 169c-.1 0-.2 0-.4.1l4.9 1.9c0-.1 0-.1 0-.1.4-1.3-3-2.1-4.5-1.9"/><path d="m188.4 160.2c.5.7 2.6.7 3.2 1 1.2.6 1.6 1.4 3.5 1.2s2.4-1.6 3.6-1.8c.1 1.1-.8 4.3 1.5 3.5 1.1-.4 1.6-3.8 1.5-4.8 1.7-.1 1.8 2.4 3.8 2.3.6 2.3-7.5 7.5-3.4 9.9s9.7-5 8.6-8.4c2.3-.7 3.9-1.4 5-3.8 1.3-3-.9-5.8-3.8-4.1s-4.2 2.2-7.2.5c-2.1-1.2-3-3.3-5.5-3.1-.5-1.4-.3-3.3-.7-4.7-.4-1.8-.8-3.6-1-5.4-.5-3.3 2.9-5.8.4-8.8-1.1-1.2-2.2-2.5-3.2-3.8s-1.2-3.3-2.2-4.2c-3.4-2.9-6.5 3.8-5.7 6.3.5 1.5 3.2 4 2.5 5.6s-3.4 1-4.6.1-4.4-7.8-6.6-6.5c-1.1.7-.3 3.8.2 4.4.8 1 2.8 1.2 2.7 2.7-3.4-.2-1.1 1.5-2.9 2.8-1.3-.9-1.1-3.9-2.7-3.7-.1 1.4.7 3.2 0 4.1-.4.5-1.7-.4-2.1.9s.8 1.6 1.5 2.4c1.1 1.3.9 2.7 1.9 4s2.9 1.3 4.6 1.2c.5-1.1.2-2.5.3-3.7 3.2-.6 7.8 5.7 2.6 3.8.7 1.4.2 3.2 1.1 4.5.6 1 2.6 1.7 3.5 2.2-.2 1.1-1.1 2.4-.4 3.4"/><path d="m233.5 314.2c-.6 1.2-.6 2.5-.2 3.8l5.7-3.7c-1.7-2.3-3.7-3.7-5.5-.1"/><path d="m223 256c-.4.3-.7.6-1 1 .4-.3.7-.6 1-1"/><path d="m218.7 249.1c-5.4 3.9-1.6 6.1-2 11.1 1.4-.7 2.7-1.6 3.9-2.5.5-.5 1-1 1.6-1.4-.5.5-1 1-1.6 1.4-6.9 6.8-7.9 18.4-8.4 27.5-4.7.9-1.3 8.6 3 7.7 3-.6 10.4-7.7 4.4-9.5-.2-3.3 1.6-8.2 2.5-11.4 1.1-3.9 3.3-5.6 5.1-8.7 1.9-3.3 0-6.7-.8-9.9-.8-3-1.8-5.4-2.1-8.4l-6.5 4.4c.3-.1.6-.2.9-.3"/><path d="m237.9 276.6c1.3.1 1.4-2.2 2.1-3-4.7-.6-.8-4.1-1.8-6.3-1.1-2.6-5.1-2.7-6.8-1.6-4.4 2.9-1.5 10.8-1.3 15.2 4.2 1 12.8 3.3 7.8-4.3"/><path d="m190 272c4.8.3 5.9-2.1 9.3-4.4 2.3-1.4 3.6-3.9 3.7-6.6l-11.3 6.6c-.3 1.7-1.4 2.7-1.7 4.4"/><path d="m242 264c.1-4.1-2.4-10.5-7-11-.2 2.1 5.4 10 7 11"/><path d="m38.1 568.3c-.1.3-.2.4 0 .7.5-.6 1.1-.9 1.9-1h-.2c-.7 0-.9.3-1.7.3"/><path d="m25.2 552.1c-2.4-.1-5.5 1.5-5.2 3.9.7-.5 1.1-.4 1.6-1.3 1.8-.1 3.4-1.1 4.3-2.7.1-.4 0-.7.1-1z"/><path d="m4.3 529.5c-2.6-.4-4.3 1.8-4.3 4.3 1.5 0 3.1 0 4.7-.1-.3-1.2 0-2.5.9-3.4z"/><path d="m31.7 353.1c.1-.9.8-1.4.8-2.3 2.4.2 3.4-2.3 5.5-2.8-1.7-2.3-3.5-2.3-6.2-2 .2.6-.3 1.6-.1 2.3-.8-.3-1.3 0-2.1-.6.4 1.9-.4 3.8-2.6 4.1-.4 3.4 2.8 1.9 4.7 1.3"/><path d="m28.6 382.8c2.3.5 5.7.2 3.9-1.1v-.2c-3.7-1.1-5.6-.1-3.9 1.3"/><path d="m34.1 428c-.7 3.8 2.1 4.9 5.6 5 .8 1.8 4.1 5.3 4.3 1-.2-.3-.5-.4-.5-1-3-2-5-5.2-9.4-5"/><path d="m22.6 395.4.4-.5c-1.1-4.1-6.1-4-4.8 1.5 1.7.6 3.6 1.3 4.4-1"/><path d="m24.5 372c1-1.8 4.6 3.1 7.6 3 .2-.8.8-2.8.8-3.3.7-4.4-2-5-5.7-4.6-4.8.5-7.6-.2-7.2 4.9 1.5.1 3 .1 4.5 0"/><path d="m32 359c-.3 0-.7 0-1 0 0 .1.1.3.1.5.1.2.1.3.2.5z"/><path d="m30 359.3c-1.1-2.4-5-5.3-5-1.4 0 3.2 5 4.4 5 1.4"/><path d="m35.7 362.9c1.5-.2 1.8-1.2 2.3-1.9l-1.3.4c-1.2 0-2.2.2-3.5.2-.7 1 .4 1.6 2.5 1.3"/><path d="m197.8 427.3c-2-2.5-5.8-5.4-5.6-9.2 4.2.1 7.2-.7 7.4-4.9.1-2.7-.7-7-.8-10.4-4.3-.6-7.2-8.7-7.4-12.3-.1-2.1 1.1-6.9.3-8.2-1.4-2.1-4.9-1.1-6.9-1.9-.3-3 .7-6.1 0-8.9 2.7-1.1 6 .9 9.2.7 1.6-5-.4-9.2-5.9-9.6-3.1-.2-4 1.7-6.4 2.5-2.7 1-3.2-.1-5.8-1.5-.2-2.8.5-5.7-1.2-8s-4.8-2.2-6.6-3.9-2.7-3.7-3.8-5.5c-.2-.4-.5-.8-.7-1.1-1-1.5-2.4-2.6-4-3.3-7.5-3.4-6.6 2.9-7.9 7.5-.7 2.6-.4 3.8-2.1 6-1.3 1.7-2.7 2.6-3.5 4.7-3.4 1.1-6.8-.3-10.3-.4-1.4-3.8-7-4.5-9.7-6.7-1.1-.9-2.9-1.8-3.7-3-.9-1.4-.7-4.1-1.1-4.4s-.9-.6-1.4-.8c-.5-2.4-3.4-2.8-4.1-4.8-1-2.9 1-3.6 3.2-4.5 2.4-1.1 4.8-.7 7.2-1.7s3.6-3.6 5.9-4.2c.6-3.1 1.7-3.5-1.1-5.6-1.9-1.4-6.2-.5-5.9-3.6 3.2 0 4.6 3 8.5 1.8.4-.1 4.3-1.8 4.4-1.9 1.3-.9 1.9-2.5 1.5-4 4.5.9 4.7-5.9 5.1-8.6.7-4.7 4-6.2 8.8-7.9.5-1.4 2.5-3.2 4.1-3.3-.1-.5-.6.2-.6-.3 2.1-.6 4.9-3.1 6.6-4.2l.1-.1c.2-.2.5-.4.7-.6 1.9-1.5 4.3-4.1 4.4-6.3-1.5.1-3-.2-4.4-.8l-.7-.4c-6.1-3.2-12.3-11.5-17.8-10.6-.5 3.3 4.1 3.7 4.7 6.6-3.4.6-5.2-1.2-8.1-.3-3.9 1.2-3.1 3.2-1.6 7.1 1 2.7 3.2 5.6 1.9 8.9-.6 1.5-4.8 6.4-6.6 6.3 1.9-1 1.9-3.6 0-4.9 1.8-.7.9-1.5 1.3-3 .8-2.9.5-1.3-.4-3.8-.4-1.3-1.2-2.2-1.4-3.6s.6-3.6-.4-4.9c-1.7-2.5-7.5-2.2-6.4 1.5.1.5 2.6 1.5 3 2.2s.6 3.1.7 4c-1.9-.5-4.2-3.7-4.5-5.9-4.7-1.4-3.1 3.8-2.6 6.2-2.6 0-4.1-3.1-3.7-5.5-3.8-.3-5.8 3.6-10 4-1.8.2-4.4-.6-5.6 1.1-.9 1.3.2 5-.4 6.6-3.9 0-7.7 3.9-3 6.3-1.7.7-4.6.8-4.3 3.4 2.2-.2 6.1-.1 5.8 2.6-.6 0-1.2 0-1.7.1.2.9-.2 1.8.2 2.8-2.5.7-4.1-1.4-6.5-1.3-.6 2.8 3 2.9 3.2 5.5-2.7.2-5.4 0-8.1.1 0 2.7-3.3 2.5-5.2 3.4-.1 1.9-.1 3.9 0 5.8 2.9.5 5.9.7 8.9.5 2.6-.3 7-.7 3.7 3.3 2.9-1.4 6.8-3.7 10.7-3.5.2 2.1-1.7 3.3-2.4 5.2-.7 2.1-1 4.3-.9 6.5-2.8.1-5.2-.4-7.4 1.2-1.7 1.2-3.4 4-5.6 5.2-1.2.7-6.5 2.2-5.3 4.2 1 1.6 5.2 0 6.7 3.1-.6 0-1.3.6-2.1.5.1 1.1-.2 2.5-.1 3.6-2.9-1.3-2-3.9-5.9-4-3.1-.1-4.1 1.2-7.1.1-2.7-1-4.1-2.1-7.3-1.1-.7.2-1.4.5-2 .9-1.9 1.3-1.7 3.1-1.8 6-4.3.8-2.1-4.4-3.3-6.6-1.5-2.9-4.8-1.6-8.2-1.9-3-.2-4.9-1.2-7.8-2.2-3.1-1.1-6.4-.9-9.2-1.8 0 1.3.7 2.6 1.8 3.3-1.1 1.4-3.2 2.1-4.8 3-.1.4-.2.9-.1 1.4-.4.2-.9.3-1.3.5-.2.5.1.9-.1 1.4-1.6.4-1.5.8-1.7 2.2 2.2 1.1-.7 2.7 0 4.8l5.1-.6c-.5 2-3.2 3.6-2.5 6.6 1.7.5 2.8 2.1 2.8 3.8-1.9.4-5.9.7-5.8 3.7.1 2 3.1 3 4.8 3 2-.1 4.8-2.8 7.1-1.5 1.5.8 2.3 4.3 1.4 5.6-2.2 3-8.7.2-11.7 3.8-2.3 3-1.7 7.3 1.3 9.5.4.3.7.5 1.2.7-2.8 1.1-8.5-3.1-8.6 1.9-2.4-.1-5.4.3-6.4 2.9-1.5 4 2.6 2.8 3.4 5.6-4.4.4-4.6 3.8-.8 4.5.8-.3 1.5-.6 2.3-.8.5 0 1.5 1 2.2 1 2 .2 3.9-.2 5.9-.2.1 3-5.3 2-3.8 5.6 1 2.2 5.6 2.2 7.5 2.1-1-4.8 3.7-3 5.6-3.4 1.5 2-.1 4.3-.6 6.5l-.9.2c-3.1-.1-4.8 3.9-1.2 3.6.8-.8 1.5-1.8 1.9-2.8 0 .6.1 1.2.4 1.7.4.2.9.3 1.3.4-.1-.7.3-1.8.1-2.5 1.7.4 1.8 2 3.4 2.5 1.8.6 3.4-.5 5.1-.7 3.9-.3 7.9-.2 11.8.1-.1.5.2 1.2.1 1.8 1.4.1 2.7-.2 3.9-.8 1-.5 1.8-1.3 2.3-2.3-.2 1.8-1.7 2.8-1.1 5 1 .3 1.2 1.1 1.8 1.6-1.2 1.4-2.1.9-3.1.5-.5-.3-1.2-.3-1.8-.2-1.4.4-2.1 3.1-3.7 3.4-3.2.6-7.6-8.2-7.5.3-2.2 2.2-3.5 7.6-7.3 8.3-.5 1.5-.6 3.2-.4 4.8.3 1.7 1.9 2.2 1.4 4.4-2.1 1.4-2.9 4.1-4.8 5.9s-4.3 3.6-6.2 5.2c-2.5 2.1-3.9 3.9-6.8 5.6-2.4 1.4-5.1 2.8-5 6 2.2.7 1.9-1 3-1.4s2.3-.5 3.5-.8c3.1-.8 2.8-1.5 5.3-3.3 3.7-2.6 9.2-.2 13.4.2 2.6.2 4.7.2 6.6-1 .8-.5 1-2 1.8-2.6s2.7-.7 3.6-1.2c1.7-.9 2.8-2.5 4.8-2.6h.5c1.5.1 4 2.6 5.9 3.1-.1 2.8-3.8 3.3-6.4 3.5l-1 .1c-3.3.4-5.6 1.8-8.9 2.2-6.6.9-13.6 3-20.3 2.7-.1.4 0 .7-.1 1-1.1 6.3-4.7 7.4-11.8 7.5 0 1.5-.2 1.5 1 2.2.6 2.3 1.5 2.8 1.6 5.2 0 .3-1.2 1.3-1.2 2.4 0-.4 2.2 1.5 2.2 1.6-2.1 3.2-8.1 1.3-8.6-2.2-2.9-.9-2.7 2.7-5.6 2.3-1-.1-.5-2-2.1-2.3-1.2-.2-2 .8-3 1.2-2.7 1.1-3.2 2.2-5.1 4-2.3 2.2-2.4 2.2-5.3.8-.6 2-.1 6.7-2.2 7.1v1c2.9.8 4.2-1.8 7-1.8 2.6 0 4.2 1.1 7 .4 4.5-1.1 11.3-4 15.9-2.2 1.4 4.8-6.7.9-6.3 5.8-4.5.2-13.3 1.6-14.8 6.7-.4 1.4 1 2.7.1 4.2-.4.7-2.6.6-3.4 1.8-1.2 1.9-.8 8 2.1 7.7-.7-3.8 2.7-3.6 5.2-4 .2 2.9-1.8 6.3 2.6 5.9 3.1-.3 3.5-3.6 5.9-4.8s6.8.2 9.3-.1c.9-.1 2.1-.2 3.3-.5-.7.6-1.3 1.3-2.1 2-2.5 2.3-3.4 1.8-6.4 2.9-2.5.9-3.1 3-5.2 4-2.4 1.1-4.8-.7-4.1 4.1-2.8 0-6.3 3.4-1.8 3.8 1.8.1 7.6-2.2 7.8-4 4.8-.4 8.1-2.8 12.9-3 .9 0 2.9.4 3.7 0 1.2-.6.1-2.6 1.2-2.9 2.2-.8 3.7 2.4 5.4 3 0 1.8-6.5 2.4-8.4 3.4-2.5 1.3-5 3.1-7.5 4.4-.3 3.1 5.4 1.9 6.9.7-1.4 3.2-10 2.6-8.8 8.8 1.5.6 3.2.6 4.7 0-.1-.5.2-1.2.1-1.8 3.2-1 6.9-1 10.1-1.8 3.4-.9 7 .2 5.5 4.7 1.5.1 7-2.3 7.8-3.7 1.6 1.8 4 1.4 4.5-1 .4.2 1.4.1 1.8.3.5-1.6 2-1.8 3.6-1.4 1.2 1.9 2.8 1.5 4.4.9.9-.4 1.8-.7 2.7-1 1.8-.3 8.5-1.4 4.2-4.4 2.5-.5 5.4 1.1 8.4 1-.1-1.2.2-2.5.1-3.6 3.1-.3 10.8-2.6 11.8-5.6 1.2-3.4-2.3-8.7-4.4-10.7 3.3-.3 6.6 1.9 10 .7-2.1.9-3.1 3.3-2.3 5.4.1.3.3.6.5.8 2 2.9 3.2 1.1 5.5-.3 1-.7 2.2-1.1 3.2-1.8.6-.4-.1-1.3.5-1.7s1.9.1 2.3-.2c1.6-1.3 4.5-3.9 4.5-6.3 3.7.1 6.6-.4 10.3-.5.7-.8 1.4-.7 2-1.3 1.5-1.6.5-1.6.7-2.4.7-2.4 1.6-4.1-1.4-5.2 2.1 0 4.7.4 6.6-.3 2.6-1 2.8-2.4 5.6-2.5 2.1-.1 4.1.3 6.3-.2 1.9-.4 3.6-1.6 5.5-1.3-.2 1.2.4 2.2.5 3.2 3.2.7 3.3-4.1 2.6-6.2.5-.6 1.3-.8 2.1-.7 1.2 1.7 1.3 3.8 1.2 5.8.7.2 1.4.2 2.1 0 .4-2.1 2.5-3 1.9-5.5h.3.7c1.8-.2 4-.4 5.5.1s2.1 2.5 4.2 2.5c1.4 0 3.1-1.2 4.8-1.5s3.7 0 5.5 0c1.8-4.7-3.1-5.2-3.6-8.8 2.9-.8 3.4-3.9 4.4-6 1.3-2.8 3.4-3.7 4.9-6.2s.1-6.5.7-9.4 2.4-6.2 3.7-8.8c2.5-5.2 6.4-11.2 5.2-17.3s3.7-12.6-.7-18.2"/><path d="m92.5 540.1.2.2c.1.4.1.8 0 1.2-.6 0-1.1 0-1.7-.1 0 .5 0 .4.5.7 1.2-.2 2.6-.3 3.8-.5.1-.1.6-.5.7-.7-.7-1.1-2-1-3.5-.8"/><path d="m98 297.6c-3.3-2.6-.9 3.3-2 4.8 2.1 2.2 1.8-2.5 2-4.8"/><path d="m98.6 297c-.1.3-.2.6-.2.9l.2.1z"/><path d="m235.6 670h2.4c.4 0 .7-.3 1-.7 0-.1.1-.3.1-.3h-5c.4 0 .9 1 1.5 1"/><path d="m263.3 439.1c-1.1-.2-2.2-.2-3.3 0l5 .9c-.2-.3-.6-.7-1.7-.9"/><path d="m262.1 438.8c.9-.2 1.6-.6 2.7 0 .8.4 1.3 1.2 1.4 2.1l7.9 4.1c1.3-1.8 5.8-3.4 7.1-5 1.7-2 5.5-4.8 5.8-7.3-1.6-.8-2.5.3-3.9.3-3.1-.1-2.1.3-4.1-2.2s-3.8-5.5-7.1-6.4c-1.8-.5-8.2-.7-9.3.8-2.3 2.9 1.8 7.1-4.5 6.9-1.7 2-1.3 3.3.1 4.7z"/><path d="m322.4 425.3c-.1.3 0 .5.2.7v-1c-.1.1-.1.2-.2.3"/><path d="m255.6 621.6c.2-.2.4-.4.4-.6l-2 1c.6.1 1.1-.1 1.6-.4"/><path d="m266.3 443.9c2.1.5 4.2.9 6.4 1.1 0-.4.1-.8.3-1.1l-8-3.9c.3 1.4.1 3.1 1.3 3.9"/><path d="m258.3 437.5c1.2.4 2.5.6 3.7.5l-5-1c.4.1.8.3 1.3.5"/><path d="m248.1 623.9c-.1 0-.1.1-.1.1l5-1c-.4 0-.9 0-1.3.1-1.6.2-2.6.2-3.6.8"/><path d="m254 470.5c1.7.9 4.2.5 5-.6l-3.7-1c-.5.6-.9 1.1-1.3 1.6"/><path d="m275 556s.1.5.2.8c.7 0 1.8.2 3.1.2h6.7c1.4 0 2.8-.3 4-1z"/><path d="m249.6 549.6c-.1 0-.1-.1 0 0-.3-.3-.3-.3 0 0"/><path d="m190.7 280c-.4-.8 0-1.5-.7-2.3 1.7-.1 3.3.1 4.9.7.1-.4.1-.8.1-1.1-.4-5-8.1-3.9-8 2 1.1.6 2.4.9 3.7.7"/></g><path d="m190.7 280c-.4-.8 0-1.5-.7-2.3 1.7-.1 3.3.1 4.9.7.1-.4.1-.8.1-1.1-.4-5-8.1-3.9-8 2 1.1.6 2.4.9 3.7.7z"/><path clip-rule="evenodd" d="m224.6 345c.1-.1.3-.3.4-.4l-5-1.6c.8 1.3 2.2 2.2 4.6 2" fill-rule="evenodd"/><path clip-rule="evenodd" d="m218.9 330.2c.1 2-.1 7.2.9 10.7l3.8 2.4c.9-2.5-.1-4.3-.5-6.8-.5-3.2.2-6-1.3-8.9-1.4-2.7-3.1-5.7-6-5.4-1.8.2-5.7 2.3-7.5 3-2.1.8-5.6 3.7-6.3-.2-.4-2.3 3-3.9 4.9-5 3.8-2 10.8-5.6 5.9-11.3-1-1.1-1.3-2-2.9-1.8-.3 2-.4 4.2 1.7 4.9.5 2-.9 3.6-2.8 2.5-1.2-.7-1-3.9-1.2-5.2-.1-.6-.2-1.2-.3-1.8-.8-3.3-2.4-5-6-6.9 1.9-1.7 2.1-3.9.7-5.5-.9-1-2.5-.2-3.1-1-.4-.8-.5-1.7-.3-2.5.1-.8.3-1.5.3-2.1.4-8.3-4.5-5.4-10.2-7.2-2.5-.8-3.8-2.5-6.7-2.1-1.9.2-4.8 1.8-6.7 2.5-3.5 1.3-10.3 5.4-13.9 1.9.1 4.3-1.5 9-5.7 10.4-1.6.5-5.8 1.7-7.4 1.5s-2.2-1.5-3.2-1.6c-.5 0-1.1.2-1.9 1-1.3 3.6-1 7.7-2.6 11.3-.9 1.9-2.1 2.5-3.4 4.1l-.1.1c-1.3 1.6-1.3 2.4-1.9 4.6-1.1-.1-2.5.2-3.6.1-2.7 7-8.3-4.3-11.6 1.4s8.4 3.4 8.1 8.2c-2.6.1-4 2.9-6.4 3.7-3.1 1.1-5.4.4-8.1 2.3-5.1 3.7-2.5 7.1.5 10.5.7.8 1.5 1.7 2.2 2.5 2.1 2.7 1.9 4.9 3.3 7.6 1.9 3.7 4.1 1.1 7.4 2.6.3.1.5.3.8.5 1.8 1.6 2 5.4 4.3 6 1.9.5 1.5-1.3 3.1-1.6s3.3.7 4.9.8c3.4.2 7.2-.6 6.8-4.8 3-2.2 5-1.3 5.1-6.1.1-2.2-.8-6.4 1.9-7.9 5.9-3.3 8.6 7.7 10.5 10.5 2.1 3.1 5.6 1.5 7.6 3.5 2.6 2.4-.4 4.6-.4 7.4.1 7.6 10.5 1.8 13.9.4 2.2-.8 4.4-1.2 6.7-1.1 2.8.4 1.9 1.4 3.7 3 1.6 1.4 3.3 2.1 5.9.5 3.3-2 1.4-2.7 2.2-6.1.3-2.1 1.8-3.8 3.8-4.5 1.9-.5 3.9-.8 5.9-1 3-.5 8.5-3.2 8.1-6.7-2.1-.7-4-1.6-5.8-2.7-.1-1.9-.4-4.1-.6-6.3-.3-2.5-.4-4.9-.1-7.4 1.2-.6 2.4-.9 3.6-.9" fill-rule="evenodd"/><path clip-rule="evenodd" d="m502 555.9s0-.7.1-.7h1c-.3.4-.4.9-.4 1.4-.5-.2-.9-.7-1.2-.7zm40.4-88.7c-5.2-3.1-4.5-10.3-7.4-15-.5-.8-1.1-1.6-1.8-2.2-2.9-2.9-6.7-3.8-10.9-5.1-4.3-1.4-9.9-4.3-14.6-5-.8-.1-1.5-.2-2.3-.1-3.3.1-4.8 3.1-7.9 3.6s-5.6-1.1-8.5-1.1c-1.1 0-2.2 0-3.3.1-.5 1.4-.6 2.8-.5 4.2-4 1.8-3.6 4.5-5.6 7.7 0 .1-.1.1-.1.2-1.7 2.5-4 2.5-6.2 3.2-.6.2-1.1.4-1.7.7 0-3.9-3.6-8-7.5-8 1.2-3.8 4.4-7 6.9-10.1l.4-.5c3.3-4.1 4.3-7.2 3.8-12.4-.5-4.4-1.5-9.5-4-13.3-1.4-2.1-8.1-7.5-9.4-6.1-1.9-1.3-2.2-4-4.8-4.8-1.3-.4-3.1.8-4.1.4-1.3-.5-1.7-2-2.6-2.9-1.1-1.1-2.4-2-3.9-2.5-4-1.5-8.9-1-13.3-.8-1.6.1-8.7 1.4-7.5-1.9.8-2.1 6.5-1.1 8.2-.8 1.2.2 2.7 1.2 3.8 1.1 1.9-.1 2.2-1.5 3.7-2.1 2.2-1 3.6-.9 5-.2.9.5 1.8 1.1 2.6 1.8 1.8 1.4 2.8 2.6 4.9 3.2 2.4.7 5.1-.2 7.5.4.8.2 4.1 4 4.5.8.1-.9-3.9-4.4-4.5-5.1-2.6-3.2-4.5-7.3-6.7-11.2-2.2-4.1-4.7-8-8.2-10.4 2-2.3 6.4-5.4 5.9-8.7-6.2-1.8-8.7-4-10.7-10-1.6-4.9-3-11-7.5-14.5-4.2-3.3-9.8-4-14.8-5.3s-11.4-2.7-16.5-1.5c-.5-3.6-3.1-7-4.1-10.8-.8-3.7-2.5-7.2-4.9-10.2-1.1-1.3-3.1-2.8-3.7-4.4-.8-2 0-4.5-.4-6.6-.1-.8-.3-1.6-.5-2.4-.8-2.9-2.3-5.5-4.5-7.6 3.7-5.5-.2-10.5-1.6-16-.6-2.1-1-5.8-2.4-7.7-2.3-3-6.7-4.3-9.6-6.8-2.4-2.1-4.5-4.6-6.1-7.4-1.3-2.2-2.3-6-4.5-7.6s-6-.4-8.7-1.6c-1.2-.5-2.1-1.7-3.4-2.2s-3.4-.1-4.6-.6c-2.4-1.1-3.2-4.6-5.9-6-2.6-1-5.5-1.1-8.2-.2.8 13.1-29.8 6.8-36.8 6.5-.6-2.9-1.8-5.6-3.6-8 1 .4 2.7.3 3.6.8 1.1.7 1.4 2.3 2.3 2.8 2.3 1.4 5.9.7 8.5 1.2 5.5 1.1 11.6.1 15.3-4.8 2.3-3 2.3-5.1 6.2-6.6 2.6-.9 5.2-1.6 7.8-2.2 6.5-1.8 8.6-9.5.7-10.9-1.3-.3-2.7-.2-4 .3-.3-2.9-3.3-5.4-6.4-4.4-4 1.3-2.8 5.9-8.2 5.1 1.8-1.4 2.8-3.5 2.7-5.8 2.9-1.6 7.8-2 11.1-2.5s6.1-1.7 9.2-2.3c.9-1.1 1.4-2.6 1.2-4 7.2-2.5 4.2-10.7 7.7-16.2 1.4-2.2 3.4-3.9 4.6-6.4 1.5-2.9.6-6.1 1.8-8.9 1.4-3.3 3.7-4.4 4.1-8.3.1-.6.1-1.2.1-1.8 0-2.6-.3-4.5.9-7.4 2.1-5 7-9.7 7.2-15.4.1-4.1-1.4-10.6-3.8-13.9-2.9-4-9.2-4.6-11.1 1.4-2.4-.9-4.8-3.5-7.7-2.8-1.8 4-12.2.7-14.9 0-2.6-.6-5.3-.5-7.9.3-2.6 1-3.8 2.7-7 2-4.8-1.1-8.9-3.2-14.1-1.1-2.2.8-4.4 2.5-6.6 3.3-1.9.7-4.9.4-4.6 3.1-5.6 1.9-10 4-13 9.5-2.4.7-5.1.4-7.6.4 3.8-2.2 12.5-7.4 11.3-12.8-2.3.4-4-.5-4-2.9 3.6-2.3 6 .9 8.8-2.4 1.3-1.5 3.5-6.2 3-8.2-4.6.4-18.1 4.8-20.3-1.1 2.1-2.3 6-1.7 8.9-1.6 2 .1 9.6.1 5.2-3.4 3.7-2.6 5-6.6 8.1-9.1 1.6-1.3 4.5-2 6.3-3.3 2-1.4 2.6-3.1 4.1-4.8 5-5.4 19.7-12.3 15-20.8.5 0-.9-1.1-.5-1.1-.8-2.5-1.6-4-.7-6.3.8-2 3.6-3 1.5-5.3-1.8-1.8-10.7-1.7-13-.7-.3 1.6.5 3.1.6 4.6-3.8.2-9.7-2.2-12.6-.7-1.5.8-2.2 2.9-4.1 3.6s-4.3-.2-6-.6c-1.9-.5-3.5-1.5-5.5-1.2-2.5.3-2.3 1.8-3.8 3s-3.4 1.7-5.1 3c-1.4 1.1-1.7 2.6-3.7 3.2.4-2.7 2.4-8.9-3-7.3-3.2 1-1.9 7-6.7 6.2 1.9-2 1.5-4.5 1.4-7.2-3.5-.2-7-1.3-10.4-1.2-5.8.3-3.9 2.3-3.8 6.2-.4.1-.7 0-1 .1-1.9 2.3 1 2.2 1.4 4.3-1.8 1-.2 2.7 0 4.4-1.6.2-2.8-.4-4.4-.6-.3 1.8.6 6.3 1.4 7.7 1.2 2.6 5.6 1.8 5.6 4.6-3 .2-4.7-.8-7.4-1.4-2.3-.5-5.4-.1-7.8.1-.7 3.4 1.5 2.7 2.4 4.8.9 1.8.5 4.7.4 6.8-1.8.3-5.9-2.7-5.5.8.1 1.1 3.1 2.4 3.4 4.7 3.4 1.1 6.4 5 7 8.4-3 .5-4.4-3.2-7-3.8.4 2.4 1.9 4.2 3.3 6-2.5 1.4-3.2-2.2-5.8-2-.1.4-.3.8-.5 1.2v.2c-2.8.3-4.6-5.8-7.8-3.3-2.5 1.9 1.2 7.7.8 10.3-.6.2-1.1.4-1.7.4-.5-1.6.2-4.6-.7-5.9-1.3-1.9-3.4-1.8-4.1.6-.5 1.6 1.8 8.2 2.5 9.8-5.5.8-3.2 3.4-.6 6.8 1.8 2.3 7.5 3.5 8 5.2-3.1.1-4.4 0-6.6-1.4-1.5-.9-3.4-4-5.9-1.6-1.6 1.5-.5 13.5.4 15.7 4.2 1.2 4.8-4.3 8-3.5 1.3.3 1.3 3.1 3 3.2 1.9.2 2.3-1.9 4-2.2.5 5.5-5.2 2.5-8.1 2.9-1.1 3.9 4.1 4.5 7 5.1.5.7 1 1.4 1.4 2.2-2.3-1.5-7.3.4-6.1 3.9 1.8 2.1 4.4 2.7 6.3 4.4-1.2 1.2-3.6.8-5.2.3-3.8-6.9-12.6 3.3-8.9 6.6.9.8 8.7-2.3 6.6 1.6-1 1.9-6.1 0-7.8 0-.8 1.4-3.1 5.6-2.8 7.5l1.6 1c.6-.1 1.2-.3 1.8-.5.2.6.4 1.3.4 2 .1.8.1 1.5-.1 2.3-1.9.5-1.6 2.3-1.5 4-3.2.7-3.7-1.8-6.2-2.1-1.2 2.1-4.9 1-6.8 2.4-2.9 2-2 4 .8 5.2s15.3-1.8 14.5 1.5c-.7 3-6.3-.1-7.5 2.2-2 3.9 3.4 4.4 5.2 5.1 3 1.1 4.4 3.3 7.4 1.8.7-.3 1.5-1.8 2.2-2.3 1.2-.9 2.3-.7 3.4-1.6 2.4-2 4.5-4.3 6.4-6.8l4.4 2.9.4.3c-2.1.2-2.8 2.7-4.5 4s-4.1 1.6-5.7 3.4c3-.1 6.2-.8 9.1-.4-2 1.2-6.7 2.5-3.6 4.8 3.5 2.6 4.9-2.5 7.4-2.2 1.1.1 1.9 1.2 1.8 2.3 0 .3-.2.6-.3.9-.9 1.3-3.5.8-4.8.8-3.3.1-5.6-.1-8.2 1.8-2.6 0-1.2 2.3-.8 3.9-.3.1-.7.1-1 .1-.1 2.1-3.5 6.3-.5 6.9-1.1 2-1.8 4.2-2.1 6.5.8-.2 1.8.1 2.6-.2-.5 3.4-1.4 5.1-3.4 7.9-1.5 2.2-4.4 4.9-3.6 8 2.4-.8 1.5-3.8 3.6-4.6.6 3.1-3.6 4.5-2.8 8.7.8-.4 1.7-1 2.6-1.4l6.7-4.5c-.1-.7-.1-1.4-.1-2.1 4.6-.3 4.7-.8 6.9-4.5 1.9-3.1 4.3-5.7 6.1-8.6 4.3-2.2 3.6 1.6 1 4.2-2.1 2.2-4.5 3.3-6.3 5.9l-.3.4c-2.1 3.1-3 6.9-2.6 10.6.1 1 .1 4.9 2.2 4 1.4-.5.7-3.9.8-5.1 3.5-1.4 8.8 1.1 6.3-4.8 1.5 1.5.5 4.6 1.8 5.7 2.5 2.2 2.8-1.8 3.3-3.6 1.6-5.3 1.9-9.6 2.3-15.3.9 1.1 1.4 2.5 2.4 3.6.3-.8 1-1.3 1.3-2.1.9 0 1.7.3 2.3.8.3 3.4-5.3 4.4-4.8 8.3.8 5.8 5.8-.3 5.2-3.9 1.3 1.9 1.5 4.3 3.1 5.7 1.7 1.5 4 1.6 5.5 3.7-5.7-.9-11.2-4.1-13.3 3-1.2 4.1-2.6 12.5.4 15.3 3.9 3.6 8.1 4.6 8.5 10.7.2 3.7-.9 4.5-3 7s-2.8 4.9-4 8c-2.1 5.3-11.3 15.7-10.5 23.1 0 .5.2 1 .3 1.5.6 1 1.1 1.9 1.6 2.7-.7-.8-1.3-1.7-1.6-2.7-.2-.4-.5-.8-.8-1.2l-5.5 3.6c.9 2.3 2.5 4.4 4.6 5.8-.3 5.1 2.3 2.9 4.4 6.3 1.6 2.5 1.3 6 3.1 8.6 1.8.1 3.6.1 5.4 0 1.3-5.4-5.6-9.8-5.1-15.6 2.2-1.8 4.2 1.2 5.9 2.5 2.1 1.7 4.5 2.9 7.1 3.6 3.1 1.1 12.4 7.9 14.1 2.4 1-3-2.7-5.1-4-7.5-1.7-3.1-.9-4.2 2.2-1.5 4.8 4.1 8.8 4.4 15.5 4.1 4.2-.2 5.5-.7 5.3-5.1 3-.2 6.1.3 8.9-.8 3.9-1.5 3.2-3.5 3.4-7.3 4.7.4 11.7-3.4 15.9.6-2.2.1-3.2 0-4.9 1.2-2.2 1.5-1.1 3.4-4.7 1.9-1.1 5.1-4 8.9-6 13.4-.5 1.1-.3 2.5-.8 3.6s-1.9 1.8-2.5 3c-1.3 2.5-1.2 5.2-1 8 4.3 2.4 6.4 6.1 8.2 10.6.5 1.1 5.4 14.9 6.7 8.8 1.3-.4 2.4-1.1 3.6-1.5.9 3.4-2.3 5-2.6 7.9 0 2.5 2 4.6 4.6 4.6.4 0 .7 0 1.1-.1 4.3-1.2.6-6.5 4.9-7 1.1-.1 2.5 1.5 4.1 1.5 1.7 0 2-1.7 4-1.4 2.3 2.9-.5 3.6-2.1 5.1-2.4 2.4-2.5 2.4-.5 4.7.9 1 4.5 1.8 3.2 3.9-.1 0-.2.3-.4.4-1 1.2-5.1.5-6.5 1.2-2.8 3.8-2.2 9.1-.4 13.1 1.5 3.3 2.3 2.6.3 5.8-1.4 2.1-3 3.1-3.3 5.8-.4 4 3.2 8.6 5.3 11.7 2.4 3.9 6.2 6.6 10.6 7.8.5 4.8-4.9.5-6-.7-1.3-1.5-2.8-4.5-5-5.7-2.5-1.4-6.3-1.4-7.1 1.3v2.1c.6 2.4 3 3.5 2.4 6.9-.7.4-1.6.5-2.4.2-1.5-.6-2.5-2.6-4.2-3.5-2.6-1.5-6.9-2.1-9.6-.5-3.6 2-3 4.2-7.5 2.9-3.7-1.1-6.3-2.3-10.4-2.1-.4 1.3.2 2.7 1.4 3.2-7 0-7.5 3.1-11.9 7-1.6 1.4-3.7 1.5-5.6 2.6-.7.4-1.3.9-1.7 1.5-.9 1.2-1 2.6-1.7 4.5-2 5.1-6.2 7.4-10.2 10.8-3.4 2.8-5.8 4.7-7.5 8l3.3 1.6c.1-.1.1-.3.1-.5 1.8-.3 4.5 1.1 6.2.2 1.4-.8 1.9-4 2.4-5.3 4.5-2.8 11.3-2.8 16.6-2.6.5 3-3.3 4.9-1.7 7.5 1.4 2.4 5.3.5 4.9 4.6-.3 2.4-4.5 4.3-3.8 6.9s5.7 3 5.2 7c0 .4-1.9 3-2.2 4-.3 1.4-.8 2.8-1.5 4.1-.1.1-.1.2-.2.4-.6 1-1.2 2-1.9 2.9-.8 1.1-1.7 2.2-2.5 3.3-3.3 4.3-7.3 7.9-11.9 10.8-2.6 1.7-5.2 1.7-8.2 3.3s-5.2 5.2-7.8 6.7c-2.8 1.6-5.2-1.3-8.6-1.1-4.5.3-3.9 3.1-4.1 6.9-3.1.2-8.4.8-7.7 5.1 2 .6 4.4.4 6.6.5-.1 2.1-.2 4.2-.4 6.5-5.8.1-3.4 5.5 1.6 5.5 3.7 0 7.4-3.3 10.7-2.5 0 3-4 2.5-6.2 2.6-4.6 8 8.5 10.6 7.3 2.9-.1-.1-.1-.1 0 0 3.9 3.1 7.6-3.6 10.9-4.5 5.1-1.4 8.1-1 11.5-5.3-.2 3.6.3 5.7 3.3 7.6 2.3 1.5 7.1.9 8.1 4-3.3 1-8.7-.1-8.3 4.7h13.7c.7-.7 1-1.8.7-2.7 4.4-.2 6.3.7 8.5 2.7h.1c.2 0 .5.4.8.7s.5.5.8.8c2.6 2.5 7.4 3 9.2 5.9 2.5 3.9 11.9 3.3 16 2.6 5.5-1 4.8-6.5 8.9-9.2h10.3v-.6c1.4-2.2 4.2-4.3 6.2-6.6 0 .7-3.8 5.5-5.8 7.7-.1.1-.1.2-.2.2h-.2v.2c-2.8 3-6.2 5-7.9 9-1.6 3.8-2.2 8.2-2.6 12.5-5.6.3-10.5 2.2-15.6-.7-1.1-.6-2.4-1.1-3.6-1.3-3.7-.6-7.5.6-11.6-.6-5.7-1.7-10.8-.8-16.8.4-2 .4-5.9 1.4-7.4 2.5-3.7 2.7 0 2.6 1.5 5.4-1.1.1-2 .6-3.2.5 0 2.8 2.3 4-1.1 6.2-2.6 1.7-5.4.5-8.3.6-5.7.3-5.2 6.3-4.3 11.2.2 1.2.4 2.2.5 3.2 1 6.9-4.1 8.2-7.3 12.4-.4.7-.6 1.5-.7 2.2-.1.4-.4.8-.8 1.1-.8.6-1.7.8-2.7.8l-4.3 2.3c-.1 1.3 0 2.6.2 3.8l-.1.3c-1.7-.2-2.6-1.4-4.4-1.3-.1 2.8-1.4 5.4-3.5 7.2-1.2 1.1-2.2.7-3.3 2.6-.6 1.2-.1 3.1-.8 4.3-1.2 2-4.5 3.8-6.3 5.5-1.7 1.5-4.1 4.2-6.2 4.8-2.8.8-6.2-.8-8.9.4-1.9.8-5.4 4.5-6.1 6.5-.8 2.7.3 5.6 2.7 7 3 1.9 4.3 1 6.4-1.4 2.7-3 5-7 10.1-4.2 3.3 1.8 2.1 5.6 4 8.1.3.3.5.8.6 1.2 0 .2.1.3.2.5l3.7 1.2c.8.3 2.2-.3 2.2-1.2.1-1.2 0-3 .2-3.4.6-.7 2.2.4 3-.5 2.4-2.8-.4-8.2 1.5-11.3.3.8 1.4 1.6 1.8 2.3 2.5-3.7 3.2-3.8 7.8-5.2 2.9-.9 2.4-.6 3.3-3.7 1.1-3.4.1-3.1 3.6-2.5 1.6.3 3.1 1.4 4.9 1 1.6-.4 3.2-2.4 4.9-2.9 3.7-1 8.6.1 12.5-.1.4-2.7-.9-4.9-.6-7.6 2.6.1 1.7 3.8 3 5.3s3.5 1.6 5.5 1.9c2.3.4 4.4.2 6.2 1.8 1.4 1.2 1.2 3.1 3.4 4 1.1.5 5.2 1 6.3.4 1.8-1.1.9-3.6 1.8-5.2 1.8-2.8 6.3-3.6 9-6.2-4-4.2-1.6-5-1.5-9.5 0-4-1-7.9 1.5-11.4.7 1.1 1.8 2 3 2.5 2.8.9 5-2.7 8.5-4.6 4.5-2.1 9.5-3 14.5-2.6.3 0 .7.1 1 .1 3.7.5 8.3 2.1 10.4 4.6 3.4 4.2 3.9 6.5 10.4 6.2-.4-3.7-3.3-4.6 2.6-4.2 3.6.2 7.3 1.4 11 1.8 4.6.4 7.6.3 7.7-4.8.1-4.7-4.2-3.5-4.4-7.2 3.3-.5 5.5 2.3 9 1.7h.2c3.1-.6 6.8-2.1 9.8-2.5h.5v-.8c3.4-.4 5.5 0 8.9-3.5 1.7-1.8 1.8-.7 1.7-3.4-.1-1.6-1.7-3-1.6-5 3.7 0 8.3 4.8 11 6.7v-.8c0-.9-.3-1.9-.4-2.9l.1.1s-.1 0-.1-.1c.1.1.4.3.4.4v-.1c0 .2.7.4.7.6.7.5 1.4 1.1 2 1.8.6.2 1.2.3 1.8.4.6-1.3.6-2.8.1-4.2 2.5 1.2 3.4 3.6 6 4.6 3.1 1.2 5.9.5 9.2-.5 1.2-.3 2.3-.7 3.6-1v-2.2l1.5.7 4.2 2.1-4.2-2.1-1.5-.7.7.3v-.3l3.5 1.7c3.5-.7 7-1.2 10.5-1.7 2.9-.4 6.1-.6 8.9-.8 3.6-.2 5 .7 7.9 1.8 2.7.9 5.6 1.2 8.5.8 3.4-.6 4.4-3 7.5-4.6.3-.2.2-.5.3-.8 3-.4 5.6-1.9 8.9-1.5-.1-1 0-2 .3-2.9l-41.7-19.6 41.8 19.6c1.2-3.5 5.7-3.8 9.7-4.1 5.7-.3 6.8-5.1 4.1-10.2 1.5.1 2.9-.2 4.2-1 1.8-1 3.4-2.4 5-3.2 2.5-1.2 6.2-1.4 8.1-4 2-2.7 1.3-7.2.8-10.2 0-.3-.1-.9-.1-.9h1.3v-.7c.1-1.9.5-3.9 1.3-5.7-6.9-.3-12.8 3.3-19.3 4.4-.9.3-1.9.5-2.9.6h-2.7c-.1 0-.1-.2-.2-.2-.3 0-.6 0-.9.1-2-1.2-4.8-1.7-6.4-.4l-.5-.2c-1.1-.5-2-1.5-2.4-2.6.1 1.1-.4 2.1-1.3 2.7h-1.8c-1.1-.7-1.7-2.1-.2-4.3 1.2-.4 6.5-2.1 4-4-1.2-.9-6.9.3-8.1 1-1.9 1-3 5-5.7 3.8-2.9-1.3-.2-4.3 1.5-5.3 4.5-2.6 11-2 15.7-3.9 3-1.2 4.8-2.3 5.9-5.1.7-1.9 1.8-5.6 1.4-7.6-6.2-2.5-5.4 3.9-9.2 4.3-2.8-3.6 1.1-6.3 3.8-8.6 3.7-3.2 3.4-2.1 7.3-.4 3.5 1.5 7.1 1.1 9.2-2.3 2.5-4-.7-4.8-1.1-8-2.4-.3-6.3 1.5-5.8-2.6 1.6-.5 6.5-.7 3.4-3.4 5.1-.4 6.7 5.9 9.8.1 1.7-3.1 1.8-2.7 4.5-4.9 2.2-1.7 2.4-2.7 2.5-5 0-.4 0-.7 0-1.2 0-.6 0-1.2.1-1.7.2-1.8.6-3.6 1.4-5.3 1.2-2.8 1.4-5 1.8-8 .7-4.7 2.5-10 1.8-14.8z" fill-rule="evenodd"/><path clip-rule="evenodd" d="m422.8 610.5c-.6 0-1.1.3-1.6 1.2-1.8-2.1-6.8-3-9.5-2.6.1 1.5-6 5.8-7.7 6.6-.6 2.5 5.1 2.5 6.9 3.6 2.3 1.4 4.7 3.8 8 3.6.6-1 1.5-1.6 2.6-1.8.5-1.4.8-2.8.8-4.3h.4c.3-.1.7-.3 1-.4 2.4-1.9.8-5.7-.9-5.9" fill-rule="evenodd"/><path clip-rule="evenodd" d="m423.3 601.9.3.1c-.1-.3-.2-.7-.3-1z" fill-rule="evenodd"/><path clip-rule="evenodd" d="m422.9 601-.2-1.7h-.2c0-.1-.2-.2-.5-.3.2.7.5 1.4.9 2" fill-rule="evenodd"/><path clip-rule="evenodd" d="m422.8 599.8c-.2-.2-.4-.4-.6-.6v.1c.2.2.4.3.6.5z" fill-rule="evenodd"/><path clip-rule="evenodd" d="m383 154c-1.8 1.5-3.5 3.2-5 5 2.1-1.6 4.4-3.3 5-5" fill-rule="evenodd"/><path clip-rule="evenodd" d="m256.3 372.2c-.9 1.7-3.8 4.6-3.2 6.7 5.7 1.1 13-4 15-9.2.6-1.5.2-3 1-4.4s3.1-1.6 3-3.5-2.4-1.8-2.8-3.5c-.2-1 1.2-2.8 1-4.4-1.8 1.4-6.2 3-7.2 5.3-1.1 2.6.4 5.6-1 8.5-4.2-.2-4.1 1.4-5.6 4.3" fill-rule="evenodd"/></g><g clip-rule="evenodd" fill-rule="evenodd" stroke-width=".4"><path d="m438.5 596.5c-2.2-2.1-12.3-12.1-12.3-19.8 0-6.8 5.5-12.3 12.3-12.3s12.3 5.5 12.3 12.3c0 7.8-10.1 17.8-12.3 19.8m0-33.5c-7.5.1-13.6 6.2-13.5 13.8 0 9.2 12.6 20.6 13.1 21.1.2.2.6.2.8 0 .5-.5 13.1-11.9 13.1-21.1.1-7.6-6-13.7-13.5-13.8m0 17.5c-2.1 0-3.8-1.6-3.8-3.7s1.6-3.8 3.7-3.8 3.8 1.6 3.8 3.7v.1c0 2-1.6 3.7-3.7 3.7m0-8.7c-2.8 0-5 2.1-5.1 4.9 0 2.8 2.1 5 4.9 5.1 2.8 0 5-2.1 5.1-4.9v-.1c0-2.8-2.2-5-4.9-5" fill="#df2b2f" stroke="#df2b2f"/><path d="m438.5 596.5c-2.2-2.1-12.3-12.1-12.3-19.8 0-6.8 5.5-12.3 12.3-12.3s12.3 5.5 12.3 12.3c0 7.8-10.1 17.8-12.3 19.8m0-33.5c-7.5.1-13.6 6.2-13.5 13.8 0 9.2 12.6 20.6 13.1 21.1.2.2.6.2.8 0 .5-.5 13.1-11.9 13.1-21.1.1-7.6-6-13.7-13.5-13.8m0 17.5c-2.1 0-3.8-1.6-3.8-3.7s1.6-3.8 3.7-3.8 3.8 1.6 3.8 3.7v.1c0 2-1.6 3.7-3.7 3.7m0-8.7c-2.8 0-5 2.1-5.1 4.9 0 2.8 2.1 5 4.9 5.1 2.8 0 5-2.1 5.1-4.9v-.1c0-2.8-2.2-5-4.9-5" fill="#25b05f" stroke="#25b05f"/><path d="m352.5 165.5c-2.2-2.1-12.3-12.1-12.3-19.8 0-6.8 5.5-12.3 12.3-12.3s12.3 5.5 12.3 12.3c0 7.8-10.1 17.8-12.3 19.8m0-33.5c-7.5.1-13.6 6.2-13.5 13.8 0 9.2 12.6 20.6 13.1 21.1.2.2.6.2.8 0 .5-.5 13.1-11.9 13.1-21.1.1-7.6-6-13.7-13.5-13.8m0 17.5c-2.1 0-3.8-1.6-3.8-3.7s1.6-3.8 3.7-3.8 3.8 1.6 3.8 3.7v.1c0 2-1.6 3.7-3.7 3.7m0-8.7c-2.8 0-5 2.1-5.1 4.9 0 2.8 2.1 5 4.9 5.1 2.8 0 5-2.1 5.1-4.9v-.1c0-2.8-2.2-5-4.9-5" fill="#df2b2f" stroke="#df2b2f"/><path d="m352.5 165.5c-2.2-2.1-12.3-12.1-12.3-19.8 0-6.8 5.5-12.3 12.3-12.3s12.3 5.5 12.3 12.3c0 7.8-10.1 17.8-12.3 19.8m0-33.5c-7.5.1-13.6 6.2-13.5 13.8 0 9.2 12.6 20.6 13.1 21.1.2.2.6.2.8 0 .5-.5 13.1-11.9 13.1-21.1.1-7.6-6-13.7-13.5-13.8m0 17.5c-2.1 0-3.8-1.6-3.8-3.7s1.6-3.8 3.7-3.8 3.8 1.6 3.8 3.7v.1c0 2-1.6 3.7-3.7 3.7m0-8.7c-2.8 0-5 2.1-5.1 4.9 0 2.8 2.1 5 4.9 5.1 2.8 0 5-2.1 5.1-4.9v-.1c0-2.8-2.2-5-4.9-5" fill="#25b05f" stroke="#25b05f"/><path d="m418.5 475.5c-2.2-2.1-12.3-12.1-12.3-19.8 0-6.8 5.5-12.3 12.3-12.3s12.3 5.5 12.3 12.3c0 7.8-10.1 17.8-12.3 19.8m0-33.5c-7.5.1-13.6 6.2-13.5 13.8 0 9.2 12.6 20.6 13.1 21.1.2.2.6.2.8 0 .5-.5 13.1-11.9 13.1-21.1.1-7.6-6-13.7-13.5-13.8m0 17.5c-2.1 0-3.8-1.6-3.8-3.7s1.6-3.8 3.7-3.8 3.8 1.6 3.8 3.7v.1c0 2-1.6 3.7-3.7 3.7m0-8.7c-2.8 0-5 2.1-5.1 4.9 0 2.8 2.1 5 4.9 5.1s5-2.1 5.1-4.9v-.1c0-2.8-2.2-5-4.9-5" fill="#25b05f" stroke="#25b05f"/><path d="m521.5 489.5c-2.2-2.1-12.3-12.1-12.3-19.8 0-6.8 5.5-12.3 12.3-12.3s12.3 5.5 12.3 12.3c0 7.8-10.1 17.8-12.3 19.8m0-33.5c-7.5.1-13.6 6.2-13.5 13.8 0 9.2 12.6 20.6 13.1 21.1.2.2.6.2.8 0 .5-.5 13.1-11.9 13.1-21.1.1-7.6-6-13.7-13.5-13.8m0 17.5c-2.1 0-3.8-1.6-3.8-3.7s1.6-3.8 3.7-3.8 3.8 1.6 3.8 3.7v.1c0 2-1.6 3.7-3.7 3.7m0-8.7c-2.8 0-5 2.1-5.1 4.9 0 2.8 2.1 5 4.9 5.1s5-2.1 5.1-4.9v-.1c0-2.8-2.2-5-4.9-5" fill="#df2b2f" stroke="#df2b2f"/><path d="m521.5 489.5c-2.2-2.1-12.3-12.1-12.3-19.8 0-6.8 5.5-12.3 12.3-12.3s12.3 5.5 12.3 12.3c0 7.8-10.1 17.8-12.3 19.8m0-33.5c-7.5.1-13.6 6.2-13.5 13.8 0 9.2 12.6 20.6 13.1 21.1.2.2.6.2.8 0 .5-.5 13.1-11.9 13.1-21.1.1-7.6-6-13.7-13.5-13.8m0 17.5c-2.1 0-3.8-1.6-3.8-3.7s1.6-3.8 3.7-3.8 3.8 1.6 3.8 3.7v.1c0 2-1.6 3.7-3.7 3.7m0-8.7c-2.8 0-5 2.1-5.1 4.9 0 2.8 2.1 5 4.9 5.1s5-2.1 5.1-4.9v-.1c0-2.8-2.2-5-4.9-5" fill="#25b05f" stroke="#25b05f"/><path d="m346.5 362.5c-2.2-2.1-12.3-12.1-12.3-19.8 0-6.8 5.5-12.3 12.3-12.3s12.3 5.5 12.3 12.3c0 7.8-10.1 17.8-12.3 19.8m0-33.5c-7.5.1-13.6 6.2-13.5 13.8 0 9.2 12.6 20.6 13.1 21.1.2.2.6.2.8 0 .5-.5 13.1-11.9 13.1-21.1.1-7.6-6-13.7-13.5-13.8m0 17.5c-2.1 0-3.8-1.6-3.8-3.7s1.6-3.8 3.7-3.8 3.8 1.6 3.8 3.7v.1c0 2-1.6 3.7-3.7 3.7m0-8.7c-2.8 0-5 2.1-5.1 4.9 0 2.8 2.1 5 4.9 5.1s5-2.1 5.1-4.9v-.1c0-2.8-2.2-5-4.9-5" fill="#25b05f" stroke="#25b05f"/><path d="m498.5 453.5c-2.2-2.1-12.3-12.1-12.3-19.8 0-6.8 5.5-12.3 12.3-12.3s12.3 5.5 12.3 12.3c0 7.8-10.1 17.8-12.3 19.8m0-33.5c-7.5.1-13.6 6.2-13.5 13.8 0 9.2 12.6 20.6 13.1 21.1.2.2.6.2.8 0 .5-.5 13.1-11.9 13.1-21.1.1-7.6-6-13.7-13.5-13.8m0 17.5c-2.1 0-3.8-1.6-3.8-3.7s1.6-3.8 3.7-3.8 3.8 1.6 3.8 3.7v.1c0 2-1.6 3.7-3.7 3.7m0-8.7c-2.8 0-5 2.1-5.1 4.9 0 2.8 2.1 5 4.9 5.1s5-2.1 5.1-4.9v-.1c0-2.8-2.2-5-4.9-5" fill="#df2b2f" stroke="#df2b2f"/><path d="m498.5 453.5c-2.2-2.1-12.3-12.1-12.3-19.8 0-6.8 5.5-12.3 12.3-12.3s12.3 5.5 12.3 12.3c0 7.8-10.1 17.8-12.3 19.8m0-33.5c-7.5.1-13.6 6.2-13.5 13.8 0 9.2 12.6 20.6 13.1 21.1.2.2.6.2.8 0 .5-.5 13.1-11.9 13.1-21.1.1-7.6-6-13.7-13.5-13.8m0 17.5c-2.1 0-3.8-1.6-3.8-3.7s1.6-3.8 3.7-3.8 3.8 1.6 3.8 3.7v.1c0 2-1.6 3.7-3.7 3.7m0-8.7c-2.8 0-5 2.1-5.1 4.9 0 2.8 2.1 5 4.9 5.1s5-2.1 5.1-4.9v-.1c0-2.8-2.2-5-4.9-5" fill="#25b05f" stroke="#25b05f"/><path d="m377.5 317.5c-2.2-2.1-12.3-12.1-12.3-19.8 0-6.8 5.5-12.3 12.3-12.3s12.3 5.5 12.3 12.3c0 7.8-10.1 17.8-12.3 19.8m0-33.5c-7.5.1-13.6 6.2-13.5 13.8 0 9.2 12.6 20.6 13.1 21.1.2.2.6.2.8 0 .5-.5 13.1-11.9 13.1-21.1.1-7.6-6-13.7-13.5-13.8m0 17.5c-2.1 0-3.8-1.6-3.8-3.7s1.6-3.8 3.7-3.8 3.8 1.6 3.8 3.7v.1c0 2-1.6 3.7-3.7 3.7m0-8.7c-2.8 0-5 2.1-5.1 4.9 0 2.8 2.1 5 4.9 5.1s5-2.1 5.1-4.9v-.1c0-2.8-2.2-5-4.9-5" fill="#df2b2f" stroke="#df2b2f"/><path d="m377.5 317.5c-2.2-2.1-12.3-12.1-12.3-19.8 0-6.8 5.5-12.3 12.3-12.3s12.3 5.5 12.3 12.3c0 7.8-10.1 17.8-12.3 19.8m0-33.5c-7.5.1-13.6 6.2-13.5 13.8 0 9.2 12.6 20.6 13.1 21.1.2.2.6.2.8 0 .5-.5 13.1-11.9 13.1-21.1.1-7.6-6-13.7-13.5-13.8m0 17.5c-2.1 0-3.8-1.6-3.8-3.7s1.6-3.8 3.7-3.8 3.8 1.6 3.8 3.7v.1c0 2-1.6 3.7-3.7 3.7m0-8.7c-2.8 0-5 2.1-5.1 4.9 0 2.8 2.1 5 4.9 5.1s5-2.1 5.1-4.9v-.1c0-2.8-2.2-5-4.9-5" fill="#25b05f" stroke="#25b05f"/><path d="m280.5 182.5c-2.2-2.1-12.3-12.1-12.3-19.8 0-6.8 5.5-12.3 12.3-12.3s12.3 5.5 12.3 12.3c0 7.8-10.1 17.8-12.3 19.8m0-33.5c-7.5.1-13.6 6.2-13.5 13.8 0 9.2 12.6 20.6 13.1 21.1.2.2.6.2.8 0 .5-.5 13.1-11.9 13.1-21.1.1-7.6-6-13.7-13.5-13.8m0 17.5c-2.1 0-3.8-1.6-3.8-3.7s1.6-3.8 3.7-3.8 3.8 1.6 3.8 3.7v.1c0 2-1.6 3.7-3.7 3.7m0-8.7c-2.8 0-5 2.1-5.1 4.9 0 2.8 2.1 5 4.9 5.1 2.8 0 5-2.1 5.1-4.9v-.1c0-2.8-2.2-5-4.9-5" fill="#25b05f" stroke="#25b05f"/><path d="m230.5 145.5c-2.2-2.1-12.3-12.1-12.3-19.8 0-6.8 5.5-12.3 12.3-12.3s12.3 5.5 12.3 12.3c0 7.8-10.1 17.8-12.3 19.8m0-33.5c-7.5.1-13.6 6.2-13.5 13.8 0 9.2 12.6 20.6 13.1 21.1.2.2.6.2.8 0 .5-.5 13.1-11.9 13.1-21.1.1-7.6-6-13.7-13.5-13.8m0 17.5c-2.1 0-3.8-1.6-3.8-3.7s1.6-3.8 3.7-3.8 3.8 1.6 3.8 3.7v.1c0 2-1.6 3.7-3.7 3.7m0-8.7c-2.8 0-5 2.1-5.1 4.9 0 2.8 2.1 5 4.9 5.1 2.8 0 5-2.1 5.1-4.9v-.1c0-2.8-2.2-5-4.9-5" fill="#25b05f" stroke="#25b05f"/><path d="m272.5 83.5c-2.2-2.1-12.3-12.1-12.3-19.8 0-6.8 5.5-12.3 12.3-12.3s12.3 5.5 12.3 12.3c0 7.8-10.1 17.8-12.3 19.8m0-33.5c-7.5.1-13.6 6.2-13.5 13.8 0 9.2 12.6 20.6 13.1 21.1.2.2.6.2.8 0 .5-.5 13.1-11.9 13.1-21.1.1-7.6-6-13.7-13.5-13.8m0 17.5c-2.1 0-3.8-1.6-3.8-3.7s1.6-3.8 3.7-3.8 3.8 1.6 3.8 3.7v.1c0 2-1.6 3.7-3.7 3.7m0-8.7c-2.8 0-5 2.1-5.1 4.9 0 2.8 2.1 5 4.9 5.1 2.8 0 5-2.1 5.1-4.9v-.1c0-2.8-2.2-5-4.9-5" fill="#25b05f" stroke="#25b05f"/><path d="m433.5 375.5c-2.2-2.1-12.3-12.1-12.3-19.8 0-6.8 5.5-12.3 12.3-12.3s12.3 5.5 12.3 12.3c0 7.8-10.1 17.8-12.3 19.8m0-33.5c-7.5.1-13.6 6.2-13.5 13.8 0 9.2 12.6 20.6 13.1 21.1.2.2.6.2.8 0 .5-.5 13.1-11.9 13.1-21.1.1-7.6-6-13.7-13.5-13.8m0 17.5c-2.1 0-3.8-1.6-3.8-3.7s1.6-3.8 3.7-3.8 3.8 1.6 3.8 3.7v.1c0 2-1.6 3.7-3.7 3.7m0-8.7c-2.8 0-5 2.1-5.1 4.9 0 2.8 2.1 5 4.9 5.1s5-2.1 5.1-4.9v-.1c0-2.8-2.2-5-4.9-5" fill="#df2b2f" stroke="#df2b2f"/><path d="m433.5 375.5c-2.2-2.1-12.3-12.1-12.3-19.8 0-6.8 5.5-12.3 12.3-12.3s12.3 5.5 12.3 12.3c0 7.8-10.1 17.8-12.3 19.8m0-33.5c-7.5.1-13.6 6.2-13.5 13.8 0 9.2 12.6 20.6 13.1 21.1.2.2.6.2.8 0 .5-.5 13.1-11.9 13.1-21.1.1-7.6-6-13.7-13.5-13.8m0 17.5c-2.1 0-3.8-1.6-3.8-3.7s1.6-3.8 3.7-3.8 3.8 1.6 3.8 3.7v.1c0 2-1.6 3.7-3.7 3.7m0-8.7c-2.8 0-5 2.1-5.1 4.9 0 2.8 2.1 5 4.9 5.1s5-2.1 5.1-4.9v-.1c0-2.8-2.2-5-4.9-5" fill="#25b05f" stroke="#25b05f"/><path d="m257.5 528.5c-2.2-2.1-12.3-12.1-12.3-19.8 0-6.8 5.5-12.3 12.3-12.3s12.3 5.5 12.3 12.3c0 7.8-10.1 17.8-12.3 19.8m0-33.5c-7.5.1-13.6 6.2-13.5 13.7 0 9.2 12.6 20.6 13.1 21.1.2.2.6.2.8 0 .5-.5 13.1-11.9 13.1-21.1.1-7.5-6-13.6-13.5-13.7m0 17.5c-2.1 0-3.8-1.6-3.8-3.7s1.6-3.8 3.7-3.8 3.8 1.6 3.8 3.7v.1c0 2-1.6 3.7-3.7 3.7m0-8.7c-2.8 0-5 2.1-5.1 4.9 0 2.8 2.1 5 4.9 5.1 2.8 0 5-2.1 5.1-4.9v-.1c0-2.8-2.2-5-4.9-5" fill="#df2b2f" stroke="#df2b2f"/><path d="m257.5 528.5c-2.2-2.1-12.3-12.1-12.3-19.8 0-6.8 5.5-12.3 12.3-12.3s12.3 5.5 12.3 12.3c0 7.8-10.1 17.8-12.3 19.8m0-33.5c-7.5.1-13.6 6.2-13.5 13.7 0 9.2 12.6 20.6 13.1 21.1.2.2.6.2.8 0 .5-.5 13.1-11.9 13.1-21.1.1-7.5-6-13.6-13.5-13.7m0 17.5c-2.1 0-3.8-1.6-3.8-3.7s1.6-3.8 3.7-3.8 3.8 1.6 3.8 3.7v.1c0 2-1.6 3.7-3.7 3.7m0-8.7c-2.8 0-5 2.1-5.1 4.9 0 2.8 2.1 5 4.9 5.1 2.8 0 5-2.1 5.1-4.9v-.1c0-2.8-2.2-5-4.9-5" fill="#25b05f" stroke="#25b05f"/><path d="m237.5 646.5c-2.2-2.1-12.3-12.1-12.3-19.8 0-6.8 5.5-12.3 12.3-12.3s12.3 5.5 12.3 12.3c0 7.8-10.1 17.8-12.3 19.8m0-33.5c-7.5.1-13.6 6.2-13.5 13.8 0 9.2 12.6 20.6 13.1 21.1.2.2.6.2.8 0 .5-.5 13.1-11.9 13.1-21.1.1-7.6-6-13.7-13.5-13.8m0 17.5c-2.1 0-3.8-1.6-3.8-3.7s1.6-3.8 3.7-3.8 3.8 1.6 3.8 3.7v.1c0 2-1.6 3.7-3.7 3.7m0-8.7c-2.8 0-5 2.1-5.1 4.9s2.1 5 4.9 5.1c2.8 0 5-2.1 5.1-4.9v-.1c0-2.8-2.2-5-4.9-5" fill="#df2b2f" stroke="#df2b2f"/><path d="m237.5 646.5c-2.2-2.1-12.3-12.1-12.3-19.8 0-6.8 5.5-12.3 12.3-12.3s12.3 5.5 12.3 12.3c0 7.8-10.1 17.8-12.3 19.8m0-33.5c-7.5.1-13.6 6.2-13.5 13.8 0 9.2 12.6 20.6 13.1 21.1.2.2.6.2.8 0 .5-.5 13.1-11.9 13.1-21.1.1-7.6-6-13.7-13.5-13.8m0 17.5c-2.1 0-3.8-1.6-3.8-3.7s1.6-3.8 3.7-3.8 3.8 1.6 3.8 3.7v.1c0 2-1.6 3.7-3.7 3.7m0-8.7c-2.8 0-5 2.1-5.1 4.9s2.1 5 4.9 5.1c2.8 0 5-2.1 5.1-4.9v-.1c0-2.8-2.2-5-4.9-5" fill="#25b05f" stroke="#25b05f"/><path d="m250.5 309.5c-2.2-2.1-12.3-12.1-12.3-19.8 0-6.8 5.5-12.3 12.3-12.3s12.3 5.5 12.3 12.3c0 7.8-10.1 17.8-12.3 19.8m0-33.5c-7.5.1-13.6 6.2-13.5 13.8 0 9.2 12.6 20.6 13.1 21.1.2.2.6.2.8 0 .5-.5 13.1-11.9 13.1-21.1.1-7.6-6-13.7-13.5-13.8m0 17.5c-2.1 0-3.8-1.6-3.8-3.7s1.6-3.8 3.7-3.8 3.8 1.6 3.8 3.7v.1c0 2-1.6 3.7-3.7 3.7m0-8.7c-2.8 0-5 2.1-5.1 4.9 0 2.8 2.1 5 4.9 5.1s5-2.1 5.1-4.9v-.1c0-2.8-2.2-5-4.9-5" fill="#25b05f" stroke="#25b05f"/><path d="m212.5 190.3c-2.2-2.1-12.3-12.1-12.3-19.8 0-6.8 5.5-12.3 12.3-12.3s12.3 5.5 12.3 12.3c-.1 7.7-10.2 17.7-12.3 19.8m0-33.5c-7.5.1-13.6 6.2-13.5 13.8 0 9.2 12.6 20.6 13.1 21.1.2.2.6.2.8 0 .5-.5 13.1-11.9 13.1-21.1 0-7.6-6-13.8-13.5-13.8m0 17.5c-2.1 0-3.8-1.6-3.8-3.7s1.6-3.8 3.7-3.8 3.8 1.6 3.8 3.7v.1c0 2-1.7 3.6-3.7 3.7m0-8.8c-2.8 0-5 2.1-5.1 4.9s2.1 5 4.9 5.1c2.8 0 5-2.1 5.1-4.9v-.1c0-2.7-2.2-5-4.9-5" fill="#25b05f" stroke="#25b05f"/><path d="m330.5 127.5c-2.2-2.1-12.3-12.1-12.3-19.8 0-6.8 5.5-12.3 12.3-12.3s12.3 5.5 12.3 12.3c0 7.8-10.1 17.8-12.3 19.8m0-33.5c-7.5.1-13.6 6.2-13.5 13.8 0 9.2 12.6 20.6 13.1 21.1.2.2.6.2.8 0 .5-.5 13.1-11.9 13.1-21.1.1-7.6-6-13.7-13.5-13.8m0 17.5c-2.1 0-3.8-1.6-3.8-3.7s1.6-3.8 3.7-3.8 3.8 1.6 3.8 3.7v.1c0 2-1.6 3.7-3.7 3.7m0-8.7c-2.8 0-5 2.1-5.1 4.9 0 2.8 2.1 5 4.9 5.1 2.8 0 5-2.1 5.1-4.9v-.1c0-2.8-2.2-5-4.9-5" fill="#25b05f" stroke="#25b05f"/><path d="m362.5 261.5c-2.2-2.1-12.3-12.1-12.3-19.8 0-6.8 5.5-12.3 12.3-12.3s12.3 5.5 12.3 12.3c0 7.8-10.1 17.8-12.3 19.8m0-33.5c-7.5.1-13.6 6.2-13.5 13.8 0 9.2 12.6 20.6 13.1 21.1.2.2.6.2.8 0 .5-.5 13.1-11.9 13.1-21.1.1-7.6-6-13.7-13.5-13.8m0 17.5c-2.1 0-3.8-1.6-3.8-3.7s1.6-3.8 3.7-3.8 3.8 1.6 3.8 3.7v.1c0 2-1.6 3.7-3.7 3.7m0-8.7c-2.8 0-5 2.1-5.1 4.9 0 2.8 2.1 5 4.9 5.1 2.8 0 5-2.1 5.1-4.9v-.1c0-2.8-2.2-5-4.9-5" fill="#25b05f" stroke="#25b05f"/><path d="m463.5 415.5c-2.2-2.1-12.3-12.1-12.3-19.8 0-6.8 5.5-12.3 12.3-12.3s12.3 5.5 12.3 12.3c0 7.8-10.1 17.8-12.3 19.8m0-33.5c-7.5.1-13.6 6.2-13.5 13.8 0 9.2 12.6 20.6 13.1 21.1.2.2.6.2.8 0 .5-.5 13.1-11.9 13.1-21.1.1-7.6-6-13.7-13.5-13.8m0 17.5c-2.1 0-3.8-1.6-3.8-3.7s1.6-3.8 3.7-3.8 3.8 1.6 3.8 3.7v.1c0 2-1.6 3.7-3.7 3.7m0-8.7c-2.8 0-5 2.1-5.1 4.9 0 2.8 2.1 5 4.9 5.1s5-2.1 5.1-4.9v-.1c0-2.8-2.2-5-4.9-5" fill="#df2b2f" stroke="#df2b2f"/><path d="m463.5 415.5c-2.2-2.1-12.3-12.1-12.3-19.8 0-6.8 5.5-12.3 12.3-12.3s12.3 5.5 12.3 12.3c0 7.8-10.1 17.8-12.3 19.8m0-33.5c-7.5.1-13.6 6.2-13.5 13.8 0 9.2 12.6 20.6 13.1 21.1.2.2.6.2.8 0 .5-.5 13.1-11.9 13.1-21.1.1-7.6-6-13.7-13.5-13.8m0 17.5c-2.1 0-3.8-1.6-3.8-3.7s1.6-3.8 3.7-3.8 3.8 1.6 3.8 3.7v.1c0 2-1.6 3.7-3.7 3.7m0-8.7c-2.8 0-5 2.1-5.1 4.9 0 2.8 2.1 5 4.9 5.1s5-2.1 5.1-4.9v-.1c0-2.8-2.2-5-4.9-5" fill="#25b05f" stroke="#25b05f"/><path d="m373.7 524.8c-2.2-2.1-12.3-12.1-12.3-19.8 0-6.8 5.5-12.3 12.3-12.3s12.3 5.5 12.3 12.3c-.1 7.7-10.2 17.7-12.3 19.8m0-33.5c-7.5.1-13.6 6.2-13.5 13.8 0 9.2 12.6 20.6 13.1 21.1.2.2.6.2.8 0 .5-.5 13.1-11.9 13.1-21.1 0-7.6-6-13.8-13.5-13.8m0 17.5c-2.1 0-3.8-1.6-3.8-3.7s1.6-3.8 3.7-3.8 3.8 1.6 3.8 3.7v.1c0 2-1.7 3.6-3.7 3.7m0-8.8c-2.8 0-5 2.1-5.1 4.9 0 2.8 2.1 5 4.9 5.1s5-2.1 5.1-4.9v-.1c0-2.7-2.2-4.9-4.9-5" fill="#25b05f" stroke="#25b05f"/><path d="m290.5 453.5c-2.2-2.1-12.3-12.1-12.3-19.8 0-6.8 5.5-12.3 12.3-12.3s12.3 5.5 12.3 12.3c0 7.8-10.1 17.8-12.3 19.8m0-33.5c-7.5.1-13.6 6.2-13.5 13.8 0 9.2 12.6 20.6 13.1 21.1.2.2.6.2.8 0 .5-.5 13.1-11.9 13.1-21.1.1-7.6-6-13.7-13.5-13.8m0 17.5c-2.1 0-3.8-1.6-3.8-3.7s1.6-3.8 3.7-3.8 3.8 1.6 3.8 3.7v.1c0 2-1.6 3.7-3.7 3.7m0-8.7c-2.8 0-5 2.1-5.1 4.9 0 2.8 2.1 5 4.9 5.1s5-2.1 5.1-4.9v-.1c0-2.8-2.2-5-4.9-5" fill="#df2b2f" stroke="#df2b2f"/><path d="m290.5 453.5c-2.2-2.1-12.3-12.1-12.3-19.8 0-6.8 5.5-12.3 12.3-12.3s12.3 5.5 12.3 12.3c0 7.8-10.1 17.8-12.3 19.8m0-33.5c-7.5.1-13.6 6.2-13.5 13.8 0 9.2 12.6 20.6 13.1 21.1.2.2.6.2.8 0 .5-.5 13.1-11.9 13.1-21.1.1-7.6-6-13.7-13.5-13.8m0 17.5c-2.1 0-3.8-1.6-3.8-3.7s1.6-3.8 3.7-3.8 3.8 1.6 3.8 3.7v.1c0 2-1.6 3.7-3.7 3.7m0-8.7c-2.8 0-5 2.1-5.1 4.9 0 2.8 2.1 5 4.9 5.1s5-2.1 5.1-4.9v-.1c0-2.8-2.2-5-4.9-5" fill="#25b05f" stroke="#25b05f"/><path d="m493.4 546c-2.2-2.1-12.3-12.1-12.3-19.8 0-6.8 5.5-12.3 12.3-12.3s12.3 5.5 12.3 12.3c0 7.8-10.1 17.8-12.3 19.8m0-33.5c-7.5.1-13.6 6.2-13.5 13.8 0 9.2 12.6 20.6 13.1 21.1.2.2.6.2.8 0 .5-.5 13.1-11.9 13.1-21.1.1-7.6-6-13.7-13.5-13.8m0 17.5c-2.1 0-3.8-1.6-3.8-3.7s1.6-3.8 3.7-3.8 3.8 1.6 3.8 3.7v.1c0 2-1.6 3.7-3.7 3.7m0-8.8c-2.8 0-5 2.1-5.1 4.9 0 2.8 2.1 5 4.9 5.1 2.8 0 5-2.1 5.1-4.9v-.1c0-2.7-2.2-4.9-4.9-5" fill="#25b05f" stroke="#25b05f"/><path d="m260.2 246c-2.1-2-12.2-12-12.2-19.8 0-6.8 5.5-12.3 12.3-12.3s12.3 5.5 12.3 12.3c-.1 7.8-10.2 17.8-12.4 19.8m0-33.5c-7.5.1-13.6 6.2-13.5 13.8 0 9.2 12.6 20.6 13.1 21.1.2.2.6.2.8 0 .5-.5 13.1-11.9 13.1-21.1.1-7.6-6-13.7-13.5-13.8m0 17.5c-2.1 0-3.8-1.6-3.8-3.7s1.6-3.8 3.7-3.8 3.8 1.6 3.8 3.7v.1c0 2-1.6 3.7-3.7 3.7m0-8.8c-2.8 0-5 2.1-5.1 4.9 0 2.8 2.1 5 4.9 5.1 2.8 0 5-2.1 5.1-4.9v-.1c0-2.7-2.1-4.9-4.9-5" fill="#25b05f" stroke="#25b05f"/></g></svg>