<svg viewBox="0 0 90 24.91" xmlns="http://www.w3.org/2000/svg" width="90" height="25"><path d="m88.92 24.91h-9.43a1.1 1.1 0 0 1 0-2.19h8.34v-15.72l-8.33-4.68-6.5 3.22a1.09 1.09 0 0 1 -1-2l7-3.47a1.06 1.06 0 0 1 1 0l9.38 5.28a1.07 1.07 0 0 1 .56 1v17.46a1.09 1.09 0 0 1 -1.08 1.1zm-88.5-7.48a1 1 0 0 1 -.42-.84 1 1 0 0 1 1-1 1.1 1.1 0 0 1 .64.21 4.21 4.21 0 0 0 2.59.91c.91 0 1.46-.36 1.46-1 0-.57-.35-.86-2-1.3-2-.52-3.36-1.09-3.36-3.11 0-1.85 1.48-3.07 3.55-3.07a5.88 5.88 0 0 1 3.21.9 1 1 0 0 1 .49.89 1 1 0 0 1 -1 1 1.11 1.11 0 0 1 -.58-.18 4.22 4.22 0 0 0 -2.12-.68c-.86 0-1.3.39-1.3.89 0 .67.43.89 2.18 1.34 2.05.54 3.21 1.28 3.21 3.06 0 2-1.53 3.15-3.72 3.15a6.46 6.46 0 0 1 -3.83-1.17zm11.24 1.08v-10.18h6.72a1 1 0 1 1 0 2h-4.51v2.06h3.86a1 1 0 0 1 1 1 1 1 0 0 1 -1 1h-3.86v2.13h4.58a1 1 0 0 1 1 1 1 1 0 0 1 -1 1zm11-5.06a5.15 5.15 0 0 1 5.34-5.3 5.39 5.39 0 0 1 3.39 1 1.14 1.14 0 0 1 .43.89 1.09 1.09 0 0 1 -1.1 1.09 1.1 1.1 0 0 1 -.66-.22 3.34 3.34 0 0 0 -2.07-.72 3 3 0 0 0 -2.99 3.2 3 3 0 0 0 2.94 3.2 3.25 3.25 0 0 0 2.2-.8 1 1 0 0 1 .66-.25 1 1 0 0 1 1 1 1.05 1.05 0 0 1 -.37.8 5.06 5.06 0 0 1 -3.6 1.28 5.12 5.12 0 0 1 -5.15-5.17zm12.74.69v-4.78a1.11 1.11 0 1 1 2.22 0v4.73c0 1.65.83 2.51 2.19 2.51s2.19-.83 2.19-2.44v-4.8a1.12 1.12 0 1 1 2.23 0v4.71c0 3.08-1.72 4.6-4.44 4.6s-4.37-1.53-4.37-4.53zm12.89-4.75a1.1 1.1 0 0 1 1.11-1.12h.23a1.37 1.37 0 0 1 1.16.65l4.29 5.67v-5.25a1.1 1.1 0 0 1 2.2 0v8.11a1.11 1.11 0 0 1 -1.11 1.12h-.07a1.38 1.38 0 0 1 -1.16-.66l-4.45-5.91v5.46a1.1 1.1 0 0 1 -2.2 0zm13.2 9.12v-10.18h3.95a5.06 5.06 0 0 1 5.38 5.06 5.08 5.08 0 0 1 -5.38 5.09zm3.95-2a2.89 2.89 0 0 0 3-3 2.91 2.91 0 0 0 -3-3.07h-1.72v6.14zm8.69-3a5.38 5.38 0 0 1 10.76 0 5.25 5.25 0 0 1 -5.4 5.26 5.2 5.2 0 0 1 -5.36-5.32zm8.43 0a3.08 3.08 0 0 0 -3.07-3.2 3 3 0 0 0 -3 3.17 3.09 3.09 0 0 0 3.06 3.2 3 3 0 0 0 3-3.17z" fill="#fff" fill-rule="evenodd"/></svg>