<svg viewBox="0 0 94 28.98" xmlns="http://www.w3.org/2000/svg" width="94" height="29"><path d="m87.15 16.55a2.22 2.22 0 0 1 -1.79.89 2.53 2.53 0 0 1 -2-.93 4.25 4.25 0 0 1 -.8-2.83 4.65 4.65 0 0 1 .78-3 2.48 2.48 0 0 1 2-.92 2.28 2.28 0 0 1 1.83.91 4.44 4.44 0 0 1 .76 2.87 4.76 4.76 0 0 1 -.73 3m-44.39-5.12a3 3 0 0 1 3.91-2 4.19 4.19 0 0 1 1.84 2l-5.56 2.27a4.36 4.36 0 0 1 -.15-2.27m-7.8 5.68a2.82 2.82 0 0 1 -4.35 0 4.87 4.87 0 0 1 -.87-3.18 4.83 4.83 0 0 1 .87-3.16 2.79 2.79 0 0 1 2.22-1 2.66 2.66 0 0 1 2.12 1 4.8 4.8 0 0 1 .86 3.12 5.06 5.06 0 0 1 -.85 3.25m23.05 7.55a.92.92 0 0 0 -.36-.07.6.6 0 0 0 -.35.1 1.26 1.26 0 0 0 -.36.41v-.44h-.76v3.12h.82v-1a5.29 5.29 0 0 1 .07-1 .63.63 0 0 1 .19-.34.43.43 0 0 1 .29-.1.82.82 0 0 1 .39.13l.15-.43a1.18 1.18 0 0 0 .31.44 2.27 2.27 0 0 0 1 .42l.69.19a.73.73 0 0 1 .32.19.45.45 0 0 1 .08.26.52.52 0 0 1 -.21.41 1 1 0 0 1 -.63.18.92.92 0 0 1 -.62-.2 1 1 0 0 1 -.31-.62l-.84.08a1.66 1.66 0 0 0 .52 1.1 1.87 1.87 0 0 0 1.25.37 2.52 2.52 0 0 0 .93-.15 1.33 1.33 0 0 0 .61-1.86 1.2 1.2 0 0 0 -.48-.44 4.5 4.5 0 0 0 -.93-.31 2.08 2.08 0 0 1 -.79-.29.32.32 0 0 1 -.13-.26.3.3 0 0 1 .14-.26.94.94 0 0 1 .59-.16.83.83 0 0 1 .54.15.69.69 0 0 1 .24.47h.86a1.22 1.22 0 0 0 -.42-.94 1.78 1.78 0 0 0 -1.21-.36 2.1 2.1 0 0 0 -.84.15 1.19 1.19 0 0 0 -.54.44 1.11 1.11 0 0 0 -.18.61v.06zm-12.62.15v.51h-.56v1.25a3 3 0 0 0 0 .45.14.14 0 0 0 .07.1.23.23 0 0 0 .14 0 .86.86 0 0 0 .33-.08l.07.64a1.51 1.51 0 0 1 -.65.13 1 1 0 0 1 -.4-.08.59.59 0 0 1 -.26-.19.86.86 0 0 1 -.11-.32 3.56 3.56 0 0 1 0-.58v-1.32h-.38v-.66h.38v-.62l.82-.48v1.1h.53l-.29-1.18h.89l.64 2.95.78-2.95h1l.75 3 .66-3h.86l-1 4.3h-.92l-.83-3.22-.85 3.22h-.93zm-4.48 1.1a1.65 1.65 0 0 0 -.35-.86 1.36 1.36 0 0 0 -1.09-.46 1.34 1.34 0 0 0 -1 .44 1.72 1.72 0 0 0 -.4 1.21 1.84 1.84 0 0 0 .3 1.08 1.4 1.4 0 0 0 1.2.53 1.32 1.32 0 0 0 1.34-.93l-.82-.13a.7.7 0 0 1 -.2.34.49.49 0 0 1 -.32.1.62.62 0 0 1 -.47-.2.81.81 0 0 1 -.2-.57h2a1.74 1.74 0 0 0 .3.86 1.37 1.37 0 0 0 1.19.53 1.42 1.42 0 0 0 .85-.24 1.38 1.38 0 0 0 .5-.69l-.83-.13a.63.63 0 0 1 -.2.34.47.47 0 0 1 -.32.1.62.62 0 0 1 -.47-.2.86.86 0 0 1 -.2-.57h2a2 2 0 0 0 -.38-1.41 1.36 1.36 0 0 0 -1.09-.46 1.34 1.34 0 0 0 -1 .44 1.58 1.58 0 0 0 -.38.88zm-4.5 1.72-.06-.55a.94.94 0 0 1 -.33.08.21.21 0 0 1 -.14 0 .14.14 0 0 1 -.07-.1 2 2 0 0 1 0-.45v-1.29h.56v-.66h-.56v-1.1l-.82.48v.62h-.38v.66h.38v1.36.58a.86.86 0 0 0 .12.32.54.54 0 0 0 .26.19 1 1 0 0 0 .4.08 1.62 1.62 0 0 0 .64-.12v.05h.81v-1a5.29 5.29 0 0 1 .07-1 .63.63 0 0 1 .19-.34.43.43 0 0 1 .29-.1.82.82 0 0 1 .39.13l.25-.71a1 1 0 0 0 -.54-.16.6.6 0 0 0 -.35.1 1.26 1.26 0 0 0 -.35.41v-.44h-.76zm55.75-19.95a5.72 5.72 0 0 0 -5-2.47 6.32 6.32 0 0 0 -3 .71 11.29 11.29 0 0 0 -2.25 2.28 4.52 4.52 0 0 0 -.79-1.22 5.24 5.24 0 0 0 -4-1.54 6.77 6.77 0 0 0 -2.95.54 9.21 9.21 0 0 0 -2.62 2.14 5.19 5.19 0 0 0 -1.83-2 5.81 5.81 0 0 0 -3-.68 6.82 6.82 0 0 0 -3 .62 8.15 8.15 0 0 0 -2.5 2.09v-2.34h-5.78v8.42l-5.35 1.62a4.11 4.11 0 0 1 -.61 1.34 3.52 3.52 0 0 1 -1.42 1.07 2.9 2.9 0 0 1 -2.54-.09 4 4 0 0 1 -1.56-1.75l11.38-4.63-.26-.65a11.14 11.14 0 0 0 -2.88-4.4 7.08 7.08 0 0 0 -3.94-1.67 11.74 11.74 0 0 0 -5.41 1.08 11.46 11.46 0 0 0 -3.12 1.83c-1.62-1.69-4-2.53-7-2.53a9.2 9.2 0 0 0 -6.67 2.39 7.89 7.89 0 0 0 -2.39 4.81v-7.19h7v-5.48h-20.76v5.48h7v11a4.5 4.5 0 0 0 -.76-2 5 5 0 0 0 -2.28-1.77 17.45 17.45 0 0 0 -4.55-1 9.68 9.68 0 0 1 -2.61-.54 1 1 0 0 1 -.61-.9 1.11 1.11 0 0 1 .48-.9 2.5 2.5 0 0 1 1.47-.37 3 3 0 0 1 1.75.49 2 2 0 0 1 .75 1.13l5.81-.57a7.18 7.18 0 0 0 -1.52-2.5 5.36 5.36 0 0 0 -2.27-1.35 14.57 14.57 0 0 0 -4.22-.44 13.67 13.67 0 0 0 -4.32.56 5.44 5.44 0 0 0 -2.52 1.68 4.22 4.22 0 0 0 -.92 2.74 4.19 4.19 0 0 0 .85 2.59 4.68 4.68 0 0 0 2.09 1.67 27.68 27.68 0 0 0 4.43 1 12.64 12.64 0 0 1 2.63.63 1.13 1.13 0 0 1 .7 1 1.19 1.19 0 0 1 -.53 1 3 3 0 0 1 -1.91.53 3.08 3.08 0 0 1 -1.81-.47 3 3 0 0 1 -1-1.56l-6.13.61a5.69 5.69 0 0 0 2.38 3.57q1.86 1.26 6.24 1.26a12.57 12.57 0 0 0 4.9-.78 5.6 5.6 0 0 0 2.63-2.1 5.24 5.24 0 0 0 .85-2.18v4.7h6.81v-7.06a7.76 7.76 0 0 0 2.84 5.16 9.42 9.42 0 0 0 6.23 2 9.45 9.45 0 0 0 6.52-2.14 8 8 0 0 0 1.18 1.08 7.3 7.3 0 0 0 3.86 1.52 11.42 11.42 0 0 0 5-1 12.17 12.17 0 0 0 4.81-3.09 7.8 7.8 0 0 0 1.35-2.52v5.84h6.14v-8.29a4.07 4.07 0 0 1 .68-2.63 2.18 2.18 0 0 1 1.74-.81 1.85 1.85 0 0 1 1.13.37 2 2 0 0 1 .68 1 5.6 5.6 0 0 1 .03 1.42v8.86h6.14v-8.3a3.93 3.93 0 0 1 .66-2.53 2.18 2.18 0 0 1 1.74-.79 1.84 1.84 0 0 1 1.53.84 2.57 2.57 0 0 1 .42 1.62v15h6.14v-7.64a5.62 5.62 0 0 0 2 1.44 6.74 6.74 0 0 0 2.58.48 6.23 6.23 0 0 0 4.83-2.11 8.86 8.86 0 0 0 1.96-6.13 10.25 10.25 0 0 0 -1.75-6.1zm-60.95 18.7.84-.08a1 1 0 0 0 .31.62.92.92 0 0 0 .62.2 1 1 0 0 0 .63-.14.52.52 0 0 0 .21-.41.45.45 0 0 0 -.08-.26.73.73 0 0 0 -.32-.19l-.69-.19a2.27 2.27 0 0 1 -1-.42 1.14 1.14 0 0 1 -.39-.87 1.11 1.11 0 0 1 .18-.61 1.14 1.14 0 0 1 .54-.44 2.1 2.1 0 0 1 .84-.15 1.78 1.78 0 0 1 1.21.36 1.22 1.22 0 0 1 .42.94h-.86a.69.69 0 0 0 -.24-.47.83.83 0 0 0 -.54-.15.94.94 0 0 0 -.59.16.3.3 0 0 0 -.14.26.32.32 0 0 0 .13.26 2.08 2.08 0 0 0 .79.29 4.5 4.5 0 0 1 .93.31 1.2 1.2 0 0 1 .48.44 1.29 1.29 0 0 1 .17.68 1.29 1.29 0 0 1 -.75 1.18 2.52 2.52 0 0 1 -.93.15 1.87 1.87 0 0 1 -1.25-.37 1.66 1.66 0 0 1 -.52-1.1zm8.92-.4a.78.78 0 0 0 -.19-.54.54.54 0 0 0 -.42-.19.59.59 0 0 0 -.45.2.8.8 0 0 0 -.16.53zm2.84 0a.83.83 0 0 0 -.18-.54.58.58 0 0 0 -.87 0 .76.76 0 0 0 -.18.53zm9.35.84.82.13a1.33 1.33 0 0 1 -.5.69 1.42 1.42 0 0 1 -.85.24 1.39 1.39 0 0 1 -1.19-.53 1.84 1.84 0 0 1 -.31-1.08 1.72 1.72 0 0 1 .41-1.21 1.3 1.3 0 0 1 1-.44 1.35 1.35 0 0 1 1.09.46 2 2 0 0 1 .39 1.41h-2.05a.86.86 0 0 0 .2.57.63.63 0 0 0 .47.2.52.52 0 0 0 .33-.1.69.69 0 0 0 .19-.37zm.05-.84a.73.73 0 0 0 -.18-.54.56.56 0 0 0 -.43-.19.57.57 0 0 0 -.44.2.75.75 0 0 0 -.17.53zm1.62-.34-.75-.13a1.17 1.17 0 0 1 .44-.67 1.51 1.51 0 0 1 .91-.22 1.89 1.89 0 0 1 .81.13.84.84 0 0 1 .38.33 1.78 1.78 0 0 1 .11.74v1a3 3 0 0 0 0 .61 1.64 1.64 0 0 0 .15.42h-.81a1.48 1.48 0 0 1 -.08-.25.29.29 0 0 1 0-.09 1.65 1.65 0 0 1 -.45.31 1.45 1.45 0 0 1 -.51.1 1.09 1.09 0 0 1 -.76-.26.9.9 0 0 1 -.27-.66.81.81 0 0 1 .13-.47.78.78 0 0 1 .35-.32 2.57 2.57 0 0 1 .65-.19 4.1 4.1 0 0 0 .79-.21v-.08a.42.42 0 0 0 -.11-.34.77.77 0 0 0 -.44-.1.55.55 0 0 0 -.34.09.57.57 0 0 0 -.2.23zm1.09.67a3.94 3.94 0 0 1 -.49.13 1.48 1.48 0 0 0 -.45.14.34.34 0 0 0 -.16.29.38.38 0 0 0 .13.3.44.44 0 0 0 .32.13.72.72 0 0 0 .43-.15.5.5 0 0 0 .19-.27 1.82 1.82 0 0 0 0-.41zm7.31-2.8v1.58a1.19 1.19 0 0 1 1.45-.36.82.82 0 0 1 .35.27 1 1 0 0 1 .15.36 3 3 0 0 1 0 .62v1.8h-.82v-1.65a2.42 2.42 0 0 0 0-.62.42.42 0 0 0 -.16-.21.56.56 0 0 0 -.3-.08.66.66 0 0 0 -.37.1.64.64 0 0 0 -.23.3 1.85 1.85 0 0 0 -.07.6v1.56h-.82v-4.3zm2.16 2.7a1.76 1.76 0 0 1 .2-.8 1.47 1.47 0 0 1 .57-.59 1.74 1.74 0 0 1 .82-.2 1.54 1.54 0 0 1 1.16.46 1.72 1.72 0 0 1 0 2.33 1.52 1.52 0 0 1 -1.14.47 1.8 1.8 0 0 1 -.81-.2 1.28 1.28 0 0 1 -.59-.56 2 2 0 0 1 -.21-.94zm.84 0a1 1 0 0 0 .22.71.69.69 0 0 0 .54.25.72.72 0 0 0 .54-.25 1.07 1.07 0 0 0 .21-.72 1 1 0 0 0 -.21-.7.69.69 0 0 0 -.54-.25.66.66 0 0 0 -.54.25 1 1 0 0 0 -.22.72zm2.52-1.55h.77v.46a1.12 1.12 0 0 1 .4-.38 1.09 1.09 0 0 1 .56-.15 1.17 1.17 0 0 1 .92.43 1.71 1.71 0 0 1 .35 1.18 1.82 1.82 0 0 1 -.38 1.22 1.22 1.22 0 0 1 -.92.43 1.2 1.2 0 0 1 -.47-.1 1.66 1.66 0 0 1 -.44-.36v1.59h-.79zm.82 1.51a1.16 1.16 0 0 0 .18.81.63.63 0 0 0 .51.25.56.56 0 0 0 .49-.25 1.54 1.54 0 0 0 0-1.48.62.62 0 0 0 -.49-.24.63.63 0 0 0 -.5.24 1 1 0 0 0 -.22.67zm2.52 1.61h.82v-.8h-.82zm.18-1.11-.21-2.19v-1h.88v1l-.19 2.19z" fill="#fff" fill-rule="evenodd"/></svg>