<svg viewBox="0 0 80 33.33" xmlns="http://www.w3.org/2000/svg" width="80" height="33"><path d="m25.66 6.31h-1.84s-6.66 9.86-6.69 9.85-7.71-9.71-7.74-9.73h-2.78c-.12 0-.11.15-.11.15v16.67c0 .85.54 1.45 1.21 1.36l1.55-.33s.11 0 .11-.19c0 0 0-8.48 0-12.87 0 0 7.19 8.31 7.19 8.31s.54.72 1.06-.11c0 0 6.17-8.86 6.15-8.87v-.06 13c-2.3.72-16.4 4.31-16.4 4.31a4 4 0 0 1 -2-.1c-1.17-.43-1.93-1.39-1.93-3.34v-21.11l22.34.65v-2c-7.5-.84-12.58-1.11-12.58-1.11l-11.87-.79a1.46 1.46 0 0 0 -1.33 1.62v23.43c0 2.38.34 3.7 2.33 5 2.36 1.54 5.49.61 5.49.61l7.18-2.19a108.63 108.63 0 0 0 10.6-3.66.2.2 0 0 0 .14-.18v-.37-17.82s0-.13-.12-.13zm34.16 26.9h.89v-7.21h-.89zm-2.17-1.08a8.47 8.47 0 0 1 -2.08.39.83.83 0 0 1 -.86-.86v-.66a.7.7 0 0 1 .73-.61h2.21zm-.41-4.63h-2.59v.79h2.35c.54 0 .67.27.67.59v.79h-2c-1.62 0-1.84 1.1-1.84 1.61v.33a1.55 1.55 0 0 0 1.49 1.72h.35a5.61 5.61 0 0 0 2-.55l.22.43h.58v-4.46a1.16 1.16 0 0 0 -1.23-1.25zm-5.38 0h-.67v5.71h.89v-4.69a5.76 5.76 0 0 1 1.19-.22h.23v-.92a4.14 4.14 0 0 0 -1.47.53zm-4 3.78v-3h2.19v-.78h-2.16v-.91h-.66l-.23.91h-.68v.74h.68v3c0 1.94 1.37 2.06 1.6 2.06a4.67 4.67 0 0 0 1.71-.3v-.72a8.91 8.91 0 0 1 -1.45.15c-.64.04-.97-.35-.97-1.15zm-4.25-3.9a9.88 9.88 0 0 0 -2.63.55l-.18-.43h-.66v5.71h.88v-4.62a19.17 19.17 0 0 1 2.39-.37c.91 0 1 .7 1 1.18v3.81h.9v-3.76c0-1.94-.98-2.07-1.67-2.07zm-8.53 1.74a.77.77 0 0 1 .86-.85h1.19a.77.77 0 0 1 .85.85v1h-2.9zm0 2.44v-.74h3.22c.26 0 .47-.2.47-.57v-1.14c0-.72-.37-1.61-1.83-1.61h-.79a1.81 1.81 0 0 0 -2 1.95v1.82c0 1.94 1.49 2.06 1.71 2.06a9.3 9.3 0 0 0 3-.42v-.76a12.77 12.77 0 0 1 -2.83.33 1 1 0 0 1 -.92-.92zm-2.03-3.26v-.8h-3.79v.8h2.87l-3.13 4.07.26.84h4.07v-.86h-3.33zm46.16-6.86h-2.58v-1.2a.46.46 0 0 1 .46-.47h2.45v-.77h-2.05c-1 0-1.72.46-1.72 1.37v1c0 .56.33.87 1 .87h2.33v1.11a.64.64 0 0 1 -.74.67 18 18 0 0 1 -2.7-.24v.82a11.67 11.67 0 0 0 2.61.23 1.6 1.6 0 0 0 1.73-1.74v-.86a.76.76 0 0 0 -.79-.79zm-6.77 1.32v-3h2.19v-.76h-2.19v-.91h-.66l-.23.91h-.68v.74h.68v3c0 1.94 1.37 2.06 1.6 2.06a4.67 4.67 0 0 0 1.71-.29v-.71a8.91 8.91 0 0 1 -1.45.15c-.64.05-.97-.39-.97-1.19zm-3.52-4.47h1v-1h-1zm.07 6.4h.87v-5.69h-.86zm-5.07-4.09a.77.77 0 0 1 .85-.85h1.23a.77.77 0 0 1 .85.85v1h-2.9zm0 2.44v-.74h3.22c.26 0 .47-.2.47-.57v-1.14c0-.73-.38-1.61-1.83-1.61h-.78a1.81 1.81 0 0 0 -2 1.95v1.82c0 1.94 1.49 2.06 1.72 2.06a9.37 9.37 0 0 0 3-.42v-.76a12.86 12.86 0 0 1 -2.83.33 1 1 0 0 1 -.97-.96zm2.8-5.82-.67-.68-1.05 1.19.52.51zm-6.88 5.54v-3h2.16v-.76h-2.16v-.91h-.66l-.18.91h-.68v.74h.68v3c0 1.94 1.38 2.06 1.6 2.06a4.73 4.73 0 0 0 1.72-.29v-.71a9 9 0 0 1 -1.46.15c-.69.05-1.02-.39-1.02-1.19zm-3.52-4.47h1v-1h-1zm.07 6.4h.87v-5.69h-.87zm-2.52 0h.89v-7.31h-.89zm-2.49 0h.87v-5.69h-.87zm-.07-6.4h1v-1h-1zm-5.44 1.71a20.21 20.21 0 0 1 2.46-.34.86.86 0 0 1 .92.94v2.4c0 .58-.26.85-.86.85h-2.52zm4.25 2.72v-1.79c0-1.95-1.27-2.07-1.66-2.07a10.17 10.17 0 0 0 -2.59.53v-2h-.87v6.75a.6.6 0 0 0 .58.56h2.67a1.78 1.78 0 0 0 1.87-1.95zm-10.74.28v-2.38a.77.77 0 0 1 .85-.85h1.84a.77.77 0 0 1 .86.84v2.39c0 .46-.15.85-.87.85h-1.83a.79.79 0 0 1 -.85-.85zm4.4-.28v-2.25s-.12-1.47-1.49-1.47h-1.82a1.9 1.9 0 0 0 -1.94 1.95v2.28a1.45 1.45 0 0 0 1.47 1.46h1.81a1.9 1.9 0 0 0 1.97-1.94zm-8.36-3.02c.91 0 1 .7 1 1.18v3.81h.9v-3.76c0-1.95-1-2.07-1.67-2.07a6.9 6.9 0 0 0 -2.24.59 1.42 1.42 0 0 0 -1.33-.59 6.18 6.18 0 0 0 -1.93.54l-.21-.4h-.66v5.71h.89v-4.64a8.59 8.59 0 0 1 1.68-.37c.81 0 .94.57 1 1v4h.89v-3.77a4.09 4.09 0 0 0 -.08-.85 10 10 0 0 1 1.76-.38z" fill="#fff" fill-rule="evenodd"/></svg>