<svg viewBox="0 0 138.79 34" xmlns="http://www.w3.org/2000/svg" width="139" height="34"><g fill="#fff"><path d="m7.33 6.82a12.15 12.15 0 0 1 8.67 3 10.77 10.77 0 0 1 3.25 8.24 10.53 10.53 0 0 1 -3.25 8.22 12.25 12.25 0 0 1 -8.67 3h-7.33v-22.46zm-3.65 19.64h3.65a7.9 7.9 0 0 0 6-2.23 8.51 8.51 0 0 0 2.11-6.12 8.46 8.46 0 0 0 -2.08-6.11 7.93 7.93 0 0 0 -6-2.22h-3.68z"/><path d="m26.26 11.47v3.1a5.62 5.62 0 0 1 5.33-3.39v3.82h-.94a4.51 4.51 0 0 0 -3.28 1.1q-1.11 1.1-1.11 3.81v9.37h-3.68v-17.81z"/><path d="m42.15 29.56a8.36 8.36 0 0 1 -6.3-2.56 9.26 9.26 0 0 1 -2.42-6.68 9.09 9.09 0 0 1 2.46-6.67 8.48 8.48 0 0 1 6.34-2.51 8.6 8.6 0 0 1 6.32 2.41 8.48 8.48 0 0 1 2.45 6.32 10.65 10.65 0 0 1 -.13 1.75h-13.66a5.11 5.11 0 0 0 1.5 3.53 4.8 4.8 0 0 0 3.44 1.31 4.34 4.34 0 0 0 4.23-2.46h4a8 8 0 0 1 -2.94 4 8.62 8.62 0 0 1 -5.29 1.56zm3.52-14a4.93 4.93 0 0 0 -3.45-1.31 4.75 4.75 0 0 0 -3.41 1.31 5.27 5.27 0 0 0 -1.57 3.51h9.89a4.66 4.66 0 0 0 -1.46-3.48z"/><path d="m61.76 29.56a8.33 8.33 0 0 1 -6.3-2.56 9.22 9.22 0 0 1 -2.46-6.64 9.08 9.08 0 0 1 2.45-6.67 8.5 8.5 0 0 1 6.35-2.51 8.58 8.58 0 0 1 6.31 2.41 8.45 8.45 0 0 1 2.43 6.28 11.87 11.87 0 0 1 -.13 1.75h-13.59a5 5 0 0 0 1.5 3.53 4.79 4.79 0 0 0 3.44 1.31 4.34 4.34 0 0 0 4.24-2.46h4a8 8 0 0 1 -3 4 8.59 8.59 0 0 1 -5.24 1.56zm3.52-14a4.94 4.94 0 0 0 -3.46-1.31 4.78 4.78 0 0 0 -3.41 1.31 5.31 5.31 0 0 0 -1.56 3.51h9.88a4.61 4.61 0 0 0 -1.45-3.48z"/><path d="m71.77 11.47h3.94l5 14.51 5-14.51h4l-6.71 17.8h-4.48z"/><path d="m99.65 29.56a8.33 8.33 0 0 1 -6.3-2.56 9.22 9.22 0 0 1 -2.43-6.68 9.09 9.09 0 0 1 2.46-6.67 8.71 8.71 0 0 1 15.08 6.18 10.65 10.65 0 0 1 -.13 1.75h-13.63a5.11 5.11 0 0 0 1.5 3.53 4.83 4.83 0 0 0 3.45 1.31 4.34 4.34 0 0 0 4.23-2.42h4a8 8 0 0 1 -2.94 4 8.61 8.61 0 0 1 -5.29 1.56zm3.52-14a4.94 4.94 0 0 0 -3.46-1.31 4.77 4.77 0 0 0 -3.41 1.31 5.26 5.26 0 0 0 -1.56 3.51h9.88a4.65 4.65 0 0 0 -1.45-3.48z"/><path d="m121.7 23.87-5.58 9.55a1.18 1.18 0 0 1 -2 0l-1.29-2.14v-.06a4.94 4.94 0 0 1 .41-5.67l4.62-5.48z"/></g><path d="m134.86 1a.85.85 0 0 0 -.11-.26 1.34 1.34 0 0 0 -.85-.67 1.42 1.42 0 0 0 -1.5.46l-11.4 14-.41.5-9.42-6.77a1.74 1.74 0 0 0 -1.5-.26 1.57 1.57 0 0 0 -.39.49 1.7 1.7 0 0 0 .32 2l8.16 8 .39.38 4.24 4.12 2.76-4.67.33-.55 9.24-15.58a1.43 1.43 0 0 0 .14-1.19z" fill="#22b05f"/><path d="m138.29 30.66-.7.62a5.41 5.41 0 0 1 -.72.54 5.62 5.62 0 0 1 -6.05-.76l-.09-.08-7.43-7.27 2.41-4.07 12.47 8.72a1.48 1.48 0 0 1 .11 2.3z" fill="#fff"/></svg>